<?xml version="1.0" encoding="UTF-8" standalone="no"?>
<!DOCTYPE svg PUBLIC "-//W3C//DTD SVG 1.1//EN" "http://www.w3.org/Graphics/SVG/1.1/DTD/svg11.dtd">
<svg xmlns="http://www.w3.org/2000/svg">
<metadata/>
<defs>
<font id="din_next_lt_proLtCn" horiz-adv-x="759">
<font-face units-per-em="2048" ascent="1536" descent="-512"/>
<missing-glyph horiz-adv-x="376"/>
<glyph unicode="ﬁ" horiz-adv-x="841" d="M74 911v45q0 20 20 21h60q12 0 12 12v178q0 111 49 168.5t164 57.5h31q20 0 20 -21v-55q0 -20 -20 -21h-43q-98 0 -99 -108v-199q0 -12 13 -12h127q20 0 20 -21v-45q0 -20 -20 -20h-127q-12 0 -13 -12v-859q0 -20 -20 -20h-62q-20 0 -20 20v859q0 12 -12 12h-60 q-20 0 -20 20zM596 1262v110q0 20 20 21h80q20 0 21 -21v-110q0 -20 -21 -21h-80q-20 0 -20 21zM606 20v936q0 20 21 21h59q20 0 21 -21v-936q0 -20 -21 -20h-59q-20 0 -21 20z"/>
<glyph unicode="ﬂ" horiz-adv-x="894" d="M74 911v45q0 20 20 21h60q12 0 12 12v178q0 111 49 168.5t164 57.5h31q20 0 20 -21v-55q0 -20 -20 -21h-43q-98 0 -99 -108v-199q0 -12 13 -12h127q20 0 20 -21v-45q0 -20 -20 -20h-127q-12 0 -13 -12v-859q0 -20 -20 -20h-62q-20 0 -20 20v859q0 12 -12 12h-60 q-20 0 -20 20zM606 227v1145q0 20 21 21h59q20 0 21 -21v-1157q0 -59 20 -86t70 -37l10 -2q20 -2 20 -20v-58q0 -23 -18 -18h-14q-104 8 -146.5 59t-42.5 174z"/>
<glyph unicode="ﬃ" horiz-adv-x="1312" d="M74 911v45q0 20 20 21h60q12 0 12 12v178q0 111 49 168.5t164 57.5h31q20 0 20 -21v-55q0 -20 -20 -21h-43q-98 0 -99 -108v-199q0 -12 13 -12h127q20 0 20 -21v-45q0 -20 -20 -20h-127q-12 0 -13 -12v-859q0 -20 -20 -20h-62q-20 0 -20 20v859q0 12 -12 12h-60 q-20 0 -20 20zM545 911v45q0 20 20 21h60q12 0 12 12v178q0 111 49 168.5t164 57.5h31q20 0 20 -21v-55q0 -20 -20 -21h-43q-98 0 -99 -108v-199q0 -12 13 -12h127q20 0 20 -21v-45q0 -20 -20 -20h-127q-12 0 -13 -12v-859q0 -20 -20 -20h-62q-20 0 -20 20v859q0 12 -12 12 h-60q-20 0 -20 20zM1067 1262v110q0 20 20 21h80q20 0 21 -21v-110q0 -20 -21 -21h-80q-20 0 -20 21zM1077 20v936q0 20 21 21h59q20 0 21 -21v-936q0 -20 -21 -20h-59q-20 0 -21 20z"/>
<glyph unicode="ﬄ" horiz-adv-x="1366" d="M74 911v45q0 20 20 21h60q12 0 12 12v178q0 111 49 168.5t164 57.5h31q20 0 20 -21v-55q0 -20 -20 -21h-43q-98 0 -99 -108v-199q0 -12 13 -12h127q20 0 20 -21v-45q0 -20 -20 -20h-127q-12 0 -13 -12v-859q0 -20 -20 -20h-62q-20 0 -20 20v859q0 12 -12 12h-60 q-20 0 -20 20zM545 911v45q0 20 20 21h60q12 0 12 12v178q0 111 49 168.5t164 57.5h31q20 0 20 -21v-55q0 -20 -20 -21h-43q-98 0 -99 -108v-199q0 -12 13 -12h127q20 0 20 -21v-45q0 -20 -20 -20h-127q-12 0 -13 -12v-859q0 -20 -20 -20h-62q-20 0 -20 20v859q0 12 -12 12 h-60q-20 0 -20 20zM1077 227v1145q0 20 21 21h59q20 0 21 -21v-1157q0 -59 20 -86t70 -37l10 -2q20 -2 20 -20v-58q0 -23 -18 -18h-14q-104 8 -146.5 59t-42.5 174z"/>
<glyph horiz-adv-x="2048"/>
<glyph horiz-adv-x="2048"/>
<glyph unicode="" horiz-adv-x="0"/>
<glyph unicode=" " horiz-adv-x="376"/>
<glyph unicode="	" horiz-adv-x="376"/>
<glyph unicode=" " horiz-adv-x="376"/>
<glyph unicode="!" horiz-adv-x="432" d="M150 20v134q0 20 20 20h92q20 0 21 -20v-134q0 -20 -21 -20h-92q-20 0 -20 20zM160 1372q0 20 20 21h70q20 0 20 -21l-16 -1003q0 -20 -21 -21h-36q-20 0 -21 21z"/>
<glyph unicode="&quot;" horiz-adv-x="464" d="M86 1092v280q0 20 20 21h46q20 0 20 -21v-280q0 -20 -20 -21h-46q-20 0 -20 21zM293 1092v280q0 20 20 21h45q20 0 21 -21v-280q0 -20 -21 -21h-45q-20 0 -20 21z"/>
<glyph unicode="#" horiz-adv-x="1052" d="M141 494v43q0 20 21 20h123l34 336h-118q-20 0 -21 20v41q0 20 21 21h127l43 397q4 20 22 21h43q23 0 19 -23l-43 -395h272l43 397q4 20 23 21h43q23 0 18 -23l-43 -395h123q20 0 20 -21v-41q0 -20 -20 -20h-131l-35 -336h127q20 0 20 -20v-43q0 -20 -20 -21h-135 l-47 -453q-4 -20 -23 -20h-43q-23 0 -18 23l47 450h-273l-47 -453q-4 -20 -22 -20h-43q-23 0 -19 23l47 450h-114q-20 0 -21 21zM369 557h272l35 336h-273z"/>
<glyph unicode="$" d="M96 324q0 20 17 22l55 10q23 2 22 -18q8 -135 46 -192.5t116 -65.5v602l-22 10q-63 25 -104.5 55.5t-66 72.5t-34.5 100.5t-10 138.5q0 334 237 348v88q0 20 21 21h22q20 0 21 -21v-88q115 -10 169 -87t60 -226q4 -20 -14 -23l-53 -8q-23 -4 -23 18q-8 111 -39 164 t-100 64v-537l24 -8q61 -25 102.5 -54.5t67 -73.5t36.5 -105.5t11 -147.5q0 -205 -59 -296t-182 -101v-131q0 -20 -21 -21h-22q-20 0 -21 21v131q-129 8 -189.5 92t-66.5 246zM213 1063q0 -61 6 -103t21.5 -73t43 -52.5t68.5 -37.5v514q-74 -6 -106.5 -63.5t-32.5 -184.5z M416 82q35 4 61.5 19.5t45 49t27.5 89t9 135.5q0 63 -8 110t-24.5 80t-44 54.5t-66.5 37.5v-575z"/>
<glyph unicode="%" horiz-adv-x="1269" d="M123 925v115v117t2 69.5t5 41t7 26.5q16 51 57.5 81t102.5 30q63 0 104 -29.5t58 -81.5q4 -12 7 -26.5t4 -41t2 -69.5t1 -117q0 -72 -1 -115.5t-2 -69.5t-4 -40t-7 -27q-16 -51 -57.5 -80.5t-104.5 -29.5q-61 0 -102 29.5t-58 80.5q-4 12 -7 26.5t-5 40.5t-2 70z M205 928.5q0 -41.5 1 -66t3 -35t4 -16.5q21 -59 84 -59q66 0 86 59q2 6 3 16.5t2 35t2 66.5t1 111q0 70 -1 113t-2 67.5t-2 35t-3 16.5q-18 57 -86 57q-66 0 -84 -57q-2 -6 -4 -16.5t-3 -35t-1 -67.5v-113v-111.5zM348 4l488 1385q8 20 26 20h45q20 0 15 -20l-488 -1385 q-8 -20 -26 -20h-46q-20 0 -14 20zM797 234.5v117.5v116t2 69.5t5 40t7 26.5q16 51 57 81t105 30q61 0 103 -30t59 -81q4 -12 6 -26.5t4 -40t2 -69.5v-116v-118t-2 -69.5t-4 -39.5t-6 -27q-16 -51 -58.5 -80.5t-103.5 -29.5q-63 0 -104.5 29.5t-57.5 80.5q-4 12 -7 26.5 t-5 40t-2 70zM879 352q0 -72 1 -113.5t2 -66.5t2 -35t3 -16q20 -57 86 -58q63 0 84 58q2 6 4 16t3 35t1 67v113v112t-1 66.5t-3 34.5t-4 17q-20 59 -84 59q-66 0 -86 -59q-2 -6 -3 -16.5t-2 -35t-2 -66.5t-1 -112z"/>
<glyph unicode="&amp;" horiz-adv-x="1046" d="M139 274q0 51 14.5 102.5t47 110t82 125t120.5 150.5q-45 80 -75.5 138t-49 104.5t-25.5 81t-7 69.5q0 119 67.5 186.5t173.5 67.5t173 -67.5t67 -186.5q0 -47 -11 -90t-37 -90t-66 -101.5t-95 -119.5l215 -389l94 172q10 20 29 10l41 -25q18 -10 8 -26l-123 -220 l72 -124q18 -37 31.5 -47.5t32.5 -10.5h8q20 0 20 -20v-54q0 -20 -20 -20h-27q-41 0 -64.5 16.5t-52.5 67.5l-55 98q-63 -98 -138 -148t-173 -50q-129 0 -203 79.5t-74 210.5zM238 276q0 -96 48 -148t134 -52q72 0 133 44t125 148l-225 406q-59 -68 -99.5 -122t-67 -101.5 t-37.5 -89.5t-11 -85zM344 1157q0 -25 5 -51.5t19.5 -62t39 -84.5t61.5 -119q49 57 80 100t49 80t25.5 69.5t7.5 67.5q0 80 -39 123t-105 43t-104.5 -43t-38.5 -123z"/>
<glyph unicode="'" horiz-adv-x="258" d="M86 1092v280q0 20 20 21h46q20 0 20 -21v-280q0 -20 -20 -21h-46q-20 0 -20 21z"/>
<glyph unicode="(" horiz-adv-x="487" d="M145 672q0 211 43 424t123 399q10 20 27 21h39q20 0 14 -21q-72 -199 -107.5 -412t-35.5 -411q0 -199 35.5 -412t107.5 -412q6 -20 -14 -20h-39q-17 0 -27 20q-80 186 -123 399.5t-43 424.5z"/>
<glyph unicode=")" horiz-adv-x="487" d="M96 -152q72 199 108 412t36 412t-36 411.5t-108 411.5q-6 20 15 21h36q20 0 27 -21q80 -186 123 -399t43 -424t-43 -424t-123 -400q-6 -20 -27 -20h-36q-21 0 -15 20z"/>
<glyph unicode="*" horiz-adv-x="663" d="M104 995q-10 18 7 29l147 84l-147 84q-16 10 -7 29l17 30q10 16 26 6l150 -88v203q0 20 20 21h31q20 0 21 -21l-2 -203l149 88q16 10 27 -6l16 -30q10 -18 -6 -29l-147 -84l147 -84q16 -10 6 -29l-16 -30q-10 -16 -27 -7l-149 89l2 -203q0 -20 -21 -21h-31q-20 0 -20 21 v203l-150 -89q-16 -10 -26 7z"/>
<glyph unicode="+" d="M80 539v53q0 20 20 20h219q12 0 13 13v221q0 20 20 20h56q20 0 20 -20v-221q0 -12 12 -13h219q20 0 21 -20v-53q0 -20 -21 -21h-219q-12 0 -12 -12v-221q0 -20 -20 -21h-56q-20 0 -20 21v221q0 12 -13 12h-219q-20 0 -20 21z"/>
<glyph unicode="," horiz-adv-x="337" d="M109 154q0 20 20 20h80q20 0 20 -20v-134q0 -16 -3 -26t-7 -25l-74 -164q-6 -14 -20 -14q-16 0 -16 16v347z"/>
<glyph unicode="-" horiz-adv-x="608" d="M84 518v55q0 20 20 21h402q20 0 20 -21v-55q0 -20 -20 -20h-402q-20 0 -20 20z"/>
<glyph unicode="." horiz-adv-x="350" d="M109 20v134q0 20 20 20h92q20 0 21 -20v-134q0 -20 -21 -20h-92q-20 0 -20 20z"/>
<glyph unicode="/" horiz-adv-x="456" d="M57 4l254 1385q4 20 23 20h47q23 0 18 -20l-256 -1385q-2 -20 -22 -20h-45q-23 0 -19 20z"/>
<glyph unicode="0" d="M111 696q0 166 1 265.5t4 156t7 82t10 41.5q29 86 92.5 127t155.5 41q90 0 153.5 -41t92.5 -127q6 -16 10 -41.5t7 -82t4 -156t1 -265.5t-1 -265t-4 -155.5t-7 -81t-10 -40.5q-29 -88 -92.5 -129t-153.5 -41q-92 0 -155.5 41t-92.5 129q-6 16 -10 40.5t-7 81t-4 155.5 t-1 265zM213 696q0 -160 1 -255t3 -147t6 -75t8 -35q33 -104 150 -104q113 0 147 104q4 12 8.5 35t6.5 75t3 147.5t1 254.5q0 160 -1 255.5t-3 148.5t-6.5 74.5t-8.5 33.5q-35 104 -147 105q-117 0 -150 -105q-4 -12 -8 -33.5t-6 -74.5t-3 -148.5t-1 -255.5z"/>
<glyph unicode="1" d="M174 1135v69q0 16 16 31l181 145q14 12 30 13h56q20 0 20 -21v-1352q0 -20 -20 -20h-60q-20 0 -20 20v1242h-4l-176 -142q-23 -14 -23 15z"/>
<glyph unicode="2" d="M115 20v54q0 18 8 32l350 697q33 66 50.5 126t17.5 146q0 61 -3 88t-12 47q-33 102 -149 103q-115 0 -150 -103q-6 -20 -9 -50t-3 -109q0 -25 -22 -21l-58 6q-20 2 -20 25q0 78 4 114.5t14 65.5q27 80 88.5 124t157.5 44q193 0 246 -168q10 -29 13 -63.5t3 -102.5 q0 -102 -20.5 -174t-59.5 -147l-334 -656v-2h394q20 0 20 -20v-56q0 -20 -20 -20h-486q-20 0 -20 20z"/>
<glyph unicode="3" d="M115 322q0 20 18 24l57 6q25 4 25 -18q0 -74 2 -102.5t10 -49.5q33 -102 150 -102q115 0 149 102q2 10 5.5 21.5t4.5 33t2 55.5t1 89t-1 89t-2 55.5t-4.5 32.5t-5.5 22q-35 100 -159 100h-33q-20 0 -21 20v56q0 20 21 20h33q125 0 159 101q2 10 5.5 21t4.5 28.5t2 46 t1 71.5t-1 70t-2 45.5t-4.5 29.5t-5.5 21q-35 102 -149 103q-117 0 -150 -103q-8 -20 -10 -48.5t-2 -102.5q0 -23 -25 -19l-57 7q-18 2 -18 24q0 72 3 106.5t13 63.5q27 80 88.5 124t157.5 44q193 0 246 -168q8 -29 13 -68.5t5 -128.5q0 -43 -1 -72.5t-3 -50t-5 -35 t-7 -28.5q-16 -45 -40 -74.5t-69 -52.5v-4q45 -23 68.5 -51.5t40.5 -73.5q4 -14 7 -28.5t5 -39t3 -60.5t1 -93t-1 -94t-3 -62.5t-6 -42t-8 -30.5q-53 -168 -246 -168q-96 0 -157.5 44t-88.5 124q-10 29 -13 64.5t-3 105.5z"/>
<glyph unicode="4" d="M55 279v53q0 12 4 24l287 1020q6 16 25 17h61q23 0 17 -23l-287 -1012v-4h280q12 0 13 13v411q0 20 20 21h62q20 0 20 -21v-411q0 -12 12 -13h117q20 0 21 -20v-55q0 -20 -21 -21h-117q-12 0 -12 -12v-226q0 -20 -20 -20h-62q-20 0 -20 20v226q0 12 -13 12h-366 q-20 0 -21 21z"/>
<glyph unicode="5" d="M121 309q0 23 20 25l58 6q23 4 22 -18q0 -66 3 -92.5t9 -47.5q35 -102 150 -102q113 0 147 98q2 10 5.5 23.5t6.5 41t4 73.5t1 122t-1 123t-4 74t-6.5 40t-5.5 23q-35 100 -147 101q-53 0 -86 -21.5t-57 -56.5q-10 -18 -31 -19h-51q-20 0 -21 21v649q0 20 21 21h469 q20 0 20 -21v-55q0 -20 -20 -21h-383q-12 0 -13 -12v-463h2q27 33 69 53.5t97 20.5q178 0 230 -158q4 -16 8 -33.5t6 -49t3 -83t1 -133.5q0 -78 -1 -128t-4 -80.5t-7 -48t-8 -31.5q-53 -166 -242 -166q-96 0 -157.5 44t-88.5 124q-10 29 -14 63.5t-4 93.5z"/>
<glyph unicode="6" d="M117 393q0 80 3 133.5t10 95.5t19.5 79.5t32.5 89.5l228 583q6 18 24 19h68q20 0 12 -21l-229 -594l2 -4q12 12 41.5 20.5t64.5 8.5q92 0 149.5 -44t84.5 -122q4 -14 7 -31.5t5 -44t3 -66.5t1 -102q0 -61 -1 -101t-3 -65.5t-5 -42t-7 -30.5q-27 -82 -88.5 -126 t-157.5 -44q-98 0 -159.5 44t-88.5 126q-4 14 -7 30.5t-5 42t-3 65.5t-1 101zM217 393q0 -59 1 -96t2 -58.5t4 -34t7 -22.5q33 -102 150 -102q115 0 149 102q2 10 5.5 22.5t4.5 34t2 58.5t1 96t-1 96t-2 58.5t-4.5 34t-5.5 22.5q-35 102 -149 103q-117 0 -150 -103 q-4 -10 -7 -22.5t-4 -34t-2 -58t-1 -96.5z"/>
<glyph unicode="7" d="M113 1104v268q0 20 20 21h516q20 0 21 -21v-55q0 -18 -6 -33l-371 -1264q-6 -20 -27 -20h-63q-18 0 -13 23l375 1269v4h-344q-12 0 -12 -12v-180q0 -20 -21 -21h-55q-20 0 -20 21z"/>
<glyph unicode="8" d="M117 381q0 55 1 91t3 59.5t5 39t7 29.5q16 47 43 79t57 50v2q-70 39 -100 127q-4 14 -7 29.5t-5 37t-3 50.5t-1 69q0 90 3 128t13 67q27 82 88.5 126t159.5 44q96 0 157.5 -44t88.5 -126q8 -29 12 -66.5t4 -128.5q0 -41 -1 -69.5t-3 -50t-5 -37t-7 -29.5 q-14 -45 -40 -76.5t-61 -50.5v-2q31 -18 57.5 -50t43.5 -79q4 -14 7 -29.5t5 -39t3 -59.5t1 -91q0 -57 -1 -95t-3 -62.5t-5 -40t-7 -29.5q-27 -82 -88.5 -126t-157.5 -44q-98 0 -159.5 44t-88.5 126q-4 14 -7 29.5t-5 40t-3 62.5t-1 95zM217 381q0 -55 1 -89t2 -55.5t4 -33 t7 -21.5q33 -102 150 -102q115 0 149 102q2 10 5.5 21.5t4.5 33t2 55.5t1 89t-1 89t-2 54.5t-4.5 31.5t-5.5 22q-35 104 -149 104q-119 0 -150 -104q-4 -10 -7 -21.5t-4 -32t-2 -54.5t-1 -89zM217 1044q0 -43 1 -69.5t2 -44t4 -28.5t7 -21q33 -103 150 -103q115 0 149 103 q2 10 5.5 21t4.5 28.5t2 44t1 69.5t-1 70t-2 45.5t-4.5 29.5t-5.5 21q-35 102 -149 103q-117 0 -150 -103q-4 -10 -7 -21t-4 -29.5t-2 -45.5t-1 -70z"/>
<glyph unicode="9" d="M117 999q0 61 1 101.5t3 66t5 42t7 30.5q27 82 88.5 126t159.5 44q96 0 157.5 -44t88.5 -126q4 -14 7 -30.5t5 -42t3 -65.5t1 -102q0 -80 -2 -133t-9 -95t-20.5 -80t-33.5 -89l-228 -584q-6 -18 -24 -18h-68q-20 0 -12 20l231 594l-4 4q-12 -12 -42 -20t-64 -8 q-92 0 -149.5 44t-84.5 122q-4 14 -7 31.5t-5 44t-3 66.5t-1 101zM217 999q0 -59 1 -96t2 -58.5t4 -33.5t7 -23q33 -102 150 -102q115 0 149 102q2 10 5.5 22.5t4.5 34t2 58.5t1 96t-1 96.5t-2 59t-4.5 33.5t-5.5 22q-35 102 -149 103q-117 0 -150 -103q-4 -10 -7 -22 t-4 -33.5t-2 -58.5t-1 -97z"/>
<glyph unicode=":" horiz-adv-x="370" d="M119 20v134q0 20 20 20h92q20 0 21 -20v-134q0 -20 -21 -20h-92q-20 0 -20 20zM119 823v133q0 20 20 21h92q20 0 21 -21v-133q0 -20 -21 -20h-92q-20 0 -20 20z"/>
<glyph unicode=";" horiz-adv-x="370" d="M119 823v133q0 20 20 21h92q20 0 21 -21v-133q0 -20 -21 -20h-92q-20 0 -20 20zM125 154q0 20 20 20h80q20 0 21 -20v-127q0 -29 -10 -52l-74 -163q-6 -14 -21 -15q-16 0 -16 17v340z"/>
<glyph unicode="&lt;" d="M80 543v45q0 23 20 28l559 232q20 6 21 -12v-64q0 -18 -21 -27l-442 -178v-4l442 -178q20 -8 21 -27v-61q0 -20 -21 -14l-559 231q-20 6 -20 29z"/>
<glyph unicode="=" d="M80 383v53q0 20 20 21h559q20 0 21 -21v-53q0 -20 -21 -21h-559q-20 0 -20 21zM80 694v54q0 20 20 20h559q20 0 21 -20v-54q0 -20 -21 -20h-559q-20 0 -20 20z"/>
<glyph unicode="&gt;" d="M80 297v61q0 18 20 27l445 178v4l-445 178q-20 8 -20 27v64q0 20 20 12l559 -232q20 -6 21 -28v-45q0 -23 -21 -29l-559 -231q-20 -8 -20 14z"/>
<glyph unicode="?" horiz-adv-x="665" d="M63 1061q0 39 1.5 67.5t3.5 49t6 36t8 29.5q27 78 88 122t152 44q188 0 237 -166q10 -25 14.5 -60.5t4.5 -88.5q0 -39 -3.5 -70t-10.5 -60.5t-19.5 -59.5t-30.5 -66l-111 -211q-16 -29 -22 -54.5t-6 -60.5v-143q0 -20 -21 -21h-59q-20 0 -21 21v147q0 41 7.5 73t25.5 68 l113 213q31 57 44 104.5t13 119.5q0 41 -4 68.5t-10 47.5q-16 51 -50 77t-91 26q-111 0 -144 -103q-6 -20 -10 -51t-4 -108q0 -25 -23 -21l-57 6q-20 2 -21 25zM258 20v134q0 20 21 20h92q20 0 20 -20v-134q0 -20 -20 -20h-92q-20 0 -21 20z"/>
<glyph unicode="@" horiz-adv-x="1404" d="M106 551q0 96 2.5 161.5t6.5 111.5t11 78t17 61q59 184 208 286.5t351 102.5q203 0 351.5 -102.5t208.5 -286.5q10 -29 17 -61t11 -78t6 -111.5t2 -161.5q0 -76 -1 -124t-3 -78t-6 -47t-8 -32q-25 -78 -80 -113.5t-127 -35.5t-123 29.5t-76 93.5h-2q-25 -66 -70.5 -94.5 t-117.5 -28.5q-152 0 -195 135q-4 14 -8 31.5t-6 47.5t-3 78t-1 124t1 124t3 77.5t6 47t8 31.5q43 135 195 135q53 0 92 -21.5t58 -58.5h4v46q0 20 20 20h55q20 0 21 -20v-551q0 -86 40 -124t99 -38q96 0 127 88q2 10 5 22.5t4 38t2 71.5t1 126q0 96 -2 160.5t-6 107.5 t-10 71t-14 52q-51 156 -177 242t-301 86q-176 0 -301 -86t-176 -242q-8 -25 -14 -52.5t-10 -70.5t-6 -107.5t-2 -160.5t2 -160.5t6 -107.5t10 -71t14 -52q51 -156 176 -242t301 -86q98 0 175 21.5t145 68.5q18 10 29 -4l22 -33q14 -14 -4 -26q-74 -53 -165 -82t-202 -29 q-203 0 -351.5 102.5t-207.5 286.5q-10 31 -17 62.5t-11 78t-6.5 112t-2.5 161.5zM561 425q0 -42 2 -66.5t4 -38t6 -23.5q31 -90 129 -90t129 90q2 10 5.5 23.5t4.5 38t2 66.5t1 112t-1 111.5t-2 66t-4 38t-6 23.5q-31 90 -129 90t-129 -90q-4 -10 -6 -23.5t-4 -38t-2 -66.5 v-111v-112z"/>
<glyph unicode="A" horiz-adv-x="794" d="M51 20l293 1352q6 20 23 21h67q18 0 23 -21l286 -1352q1 -3 1 -6q0 -14 -19 -14h-66q-18 0 -22 20l-70 334h-340l-69 -334q-4 -20 -21 -20h-65q-10 0 -16.5 5t-4.5 15zM248 451h299l-146 710h-4z"/>
<glyph unicode="B" horiz-adv-x="802" d="M139 20v1352q0 20 21 21h217q88 0 150.5 -18.5t101.5 -60.5t57.5 -109.5t18.5 -166.5q0 -135 -41 -206.5t-121 -102.5v-4q39 -14 71.5 -37.5t55 -63.5t36 -98.5t13.5 -140.5q0 -106 -20.5 -180t-62.5 -119t-108.5 -65.5t-158.5 -20.5h-209q-20 0 -21 20zM246 113 q0 -12 12 -13h113q63 0 109 13.5t76 46.5t43 88t13 139q0 162 -57 223.5t-172 61.5h-125q-12 0 -12 -13v-546zM246 780q0 -12 12 -12h123q111 0 164 56.5t53 203.5q0 78 -12.5 129t-38 81t-68.5 42t-104 12h-117q-12 0 -12 -12v-500z"/>
<glyph unicode="C" horiz-adv-x="765" d="M117 696q0 154 2 246t5 146.5t8 81t11 49.5q61 190 273 190q123 0 196.5 -73.5t87.5 -209.5v-5q0 -18 -12 -21l-61 -13q-23 -8 -23 17q-12 98 -57 151.5t-129 53.5q-131 0 -172 -123q-6 -16 -9.5 -39t-6.5 -74t-4 -139t-1 -238t1 -237.5t4 -139t6.5 -74t9.5 -38.5 q41 -123 172 -123q84 0 129 53t57 154q0 23 23 14l61 -12q13 -2 13 -17q0 -4 -1 -8q-14 -137 -87.5 -210.5t-196.5 -73.5q-212 0 -273 190q-6 23 -11 49.5t-8 80.5t-5 146.5t-2 245.5z"/>
<glyph unicode="D" horiz-adv-x="864" d="M139 20v1352q0 20 21 21h250q127 0 198.5 -53.5t104.5 -153.5q8 -29 15 -64t10 -89t5 -135t2 -202t-2 -201.5t-5 -135t-10 -89t-15 -63.5q-33 -100 -104.5 -153.5t-198.5 -53.5h-250q-20 0 -21 20zM246 113q0 -12 12 -13h139q88 0 138.5 35t74.5 107q8 25 13.5 55.5 t8.5 80.5t5 127t2 191q0 115 -2 192t-5 127t-8.5 80.5t-13.5 55.5q-25 72 -75 106.5t-138 34.5h-139q-12 0 -12 -12v-1167z"/>
<glyph unicode="E" horiz-adv-x="718" d="M139 20v1352q0 20 21 21h473q20 0 20 -21v-59q0 -20 -20 -21h-375q-12 0 -12 -12v-512q0 -12 12 -12h328q20 0 20 -21v-59q0 -20 -20 -21h-328q-12 0 -12 -12v-530q0 -12 12 -13h375q20 0 20 -20v-60q0 -20 -20 -20h-473q-20 0 -21 20z"/>
<glyph unicode="F" horiz-adv-x="712" d="M139 20v1352q0 20 21 21h473q20 0 20 -21v-59q0 -20 -20 -21h-375q-12 0 -12 -12v-520q0 -12 12 -12h328q20 0 20 -21v-59q0 -20 -20 -21h-328q-12 0 -12 -12v-615q0 -20 -21 -20h-65q-20 0 -21 20z"/>
<glyph unicode="G" horiz-adv-x="841" d="M117 696q0 154 1 246t4 145.5t8 81t13 50.5q61 190 281 190q135 0 209 -73.5t90 -200.5q2 -20 -14 -27l-60 -12q-20 -6 -24 14q-14 92 -61.5 145.5t-139.5 53.5q-137 0 -178 -123q-6 -18 -9.5 -41t-6.5 -72t-4 -138t-1 -239t1 -238.5t4 -138t6.5 -72t9.5 -40.5 q43 -123 180 -123t180 123q6 18 9 38.5t6.5 63.5t4.5 115t1 190q0 12 -13 13h-165q-20 0 -21 20v58q0 20 21 20h262q20 0 20 -20v-56q0 -135 -1 -218t-4 -132t-8 -75.5t-13 -49.5q-61 -190 -281 -190t-281 190q-8 23 -13 50.5t-8 80.5t-4 145.5t-1 245.5z"/>
<glyph unicode="H" horiz-adv-x="882" d="M139 20v1352q0 20 21 21h65q20 0 21 -21v-594q0 -12 12 -12h367q12 0 12 12v594q0 20 20 21h66q20 0 20 -21v-1352q0 -20 -20 -20h-66q-20 0 -20 20v633q0 12 -12 13h-367q-12 0 -12 -13v-633q0 -20 -21 -20h-65q-20 0 -21 20z"/>
<glyph unicode="I" horiz-adv-x="385" d="M139 20v1352q0 20 21 21h65q20 0 21 -21v-1352q0 -20 -21 -20h-65q-20 0 -21 20z"/>
<glyph unicode="J" horiz-adv-x="669" d="M70 57q-6 6 -6 13q0 8 8 16l47 45q12 12 26 -2q49 -45 115 -45q78 0 122 47t44 156v1085q0 20 20 21h66q20 0 20 -21v-1077q0 -158 -72.5 -234.5t-199.5 -76.5q-57 0 -106 19t-84 54z"/>
<glyph unicode="K" horiz-adv-x="819" d="M139 20v1352q0 20 21 21h65q20 0 21 -21v-713l360 717q8 16 25 17h74q20 0 12 -19l-271 -526l314 -828q2 -5 2 -9q0 -11 -12 -11h-78q-16 0 -23 16l-266 715l-137 -266v-445q0 -20 -21 -20h-65q-20 0 -21 20z"/>
<glyph unicode="L" horiz-adv-x="704" d="M139 20v1352q0 20 21 21h65q20 0 21 -21v-1259q0 -12 12 -13h373q20 0 20 -20v-60q0 -20 -20 -20h-471q-20 0 -21 20z"/>
<glyph unicode="M" horiz-adv-x="1069" d="M139 20v1352q0 20 21 21h69q20 0 27 -21l279 -934h4l274 934q6 20 27 21h69q20 0 21 -21v-1352q0 -20 -21 -20h-59q-20 0 -21 20v1070h-6l-245 -822q-6 -20 -23 -20h-41q-16 0 -22 20l-246 822h-6v-1070q0 -20 -21 -20h-59q-20 0 -21 20z"/>
<glyph unicode="N" horiz-adv-x="903" d="M139 20v1352q0 20 21 21h82q25 0 32 -21l385 -1141h7v1141q0 20 20 21h57q20 0 21 -21v-1352q0 -20 -21 -20h-77q-25 0 -33 20l-389 1141h-6v-1141q0 -20 -21 -20h-57q-20 0 -21 20z"/>
<glyph unicode="O" horiz-adv-x="847" d="M117 696q0 154 1 246t4 145.5t8 81t13 50.5q61 190 281 190q219 0 281 -190q8 -23 13 -50.5t8 -81t4 -145.5t1 -246t-1 -246t-4 -145t-8 -80.5t-13 -50.5q-62 -190 -281 -190t-281 190q-8 23 -13 50.5t-8 80.5t-4 145.5t-1 245.5zM225 696q0 -150 1 -238.5t4 -138 t6.5 -72t9.5 -40.5q43 -123 178 -123q137 0 178 123q6 18 10 40.5t7.5 72t4.5 138.5t1 238q0 150 -1 239t-4.5 138t-7.5 71.5t-10 41.5q-20 63 -66.5 93t-111.5 30q-137 0 -178 -123q-6 -18 -9.5 -41t-6.5 -72t-4 -138t-1 -239z"/>
<glyph unicode="P" horiz-adv-x="792" d="M139 20v1352q0 20 21 21h200q184 0 270.5 -92.5t86.5 -311.5q0 -217 -87 -311t-270 -94h-102q-12 0 -12 -13v-551q0 -20 -21 -20h-65q-20 0 -21 20zM246 696q0 -12 12 -12h102q137 0 193.5 68.5t56.5 236.5q0 166 -56 234.5t-194 68.5h-102q-12 0 -12 -12v-584z"/>
<glyph unicode="Q" horiz-adv-x="847" d="M117 696q0 154 1 246t4 145.5t8 81t13 50.5q61 190 281 190q219 0 281 -190q8 -23 13 -50.5t8 -81t4 -145.5t1 -246t-1 -246t-4 -145t-8 -80.5t-13 -50.5l-11 -24l107 -97q9 -7 9 -15q0 -6 -7 -13l-35 -45q-7 -7 -14.5 -7t-14.5 7l-96 88q-78 -84 -219 -84 q-219 0 -281 190q-8 23 -13 50.5t-8 80.5t-4 145.5t-1 245.5zM223 696q0 -150 1 -238.5t4 -138t7.5 -72t10.5 -40.5q20 -63 66 -94t112 -31q92 0 141 57l-104 97q-14 14 -4 30l35 41q14 16 28 2l88 -82q4 18 7 45t5.5 79t3.5 134t1 211q0 150 -1 239t-4.5 138t-7.5 71.5 t-10 41.5q-20 63 -66.5 93t-111.5 30q-66 0 -112 -30t-66 -93q-6 -18 -10.5 -41t-7.5 -72t-4 -138t-1 -239z"/>
<glyph unicode="R" horiz-adv-x="827" d="M139 20v1352q0 20 21 21h198q182 0 268.5 -87t86.5 -298q0 -147 -44 -231.5t-128 -121.5l188 -635q2 -5 2 -9q0 -11 -12 -11h-76q-16 0 -22 14l-181 615q-41 -6 -86 -6h-96q-12 0 -12 -13v-590q0 -20 -21 -20h-65q-20 0 -21 20zM246 733q0 -12 12 -12h109q61 0 107 13.5 t75 46t43 88t14 139.5q0 80 -13 135t-43 88t-75 47t-108 14h-109q-12 0 -12 -12v-547z"/>
<glyph unicode="S" horiz-adv-x="772" d="M88 334q0 20 14 22l62 13q23 6 22 -17q10 -152 60.5 -211t142.5 -59q47 0 82 13.5t58.5 45t36 88t12.5 142.5q0 66 -8.5 112.5t-27 80.5t-48 55.5t-70.5 37.5l-84 33q-70 27 -115 58.5t-71.5 75.5t-38 101.5t-11.5 137.5q0 346 283 346q274 0 283 -322q0 -18 -15 -22 l-59 -10q-23 -6 -23 16q-4 123 -48 181.5t-136 58.5q-94 0 -137 -57.5t-43 -186.5q0 -121 35 -178.5t121 -89.5l84 -33q66 -27 109.5 -57.5t71 -75.5t40 -105.5t12.5 -144.5q0 -215 -69.5 -307t-225.5 -92q-285 0 -299 350z"/>
<glyph unicode="T" horiz-adv-x="737" d="M37 1313v59q0 20 20 21h623q20 0 20 -21v-59q0 -20 -20 -21h-246q-12 0 -12 -12v-1260q0 -20 -21 -20h-65q-20 0 -21 20v1260q0 12 -12 12h-246q-20 0 -20 21z"/>
<glyph unicode="U" horiz-adv-x="876" d="M137 328v1044q0 20 21 21h65q20 0 21 -21v-1053q0 -123 53 -179t141 -56t142.5 56.5t54.5 178.5v1053q0 20 20 21h64q20 0 20 -21v-1044q0 -174 -83 -259t-218 -85t-218 85t-83 259z"/>
<glyph unicode="V" horiz-adv-x="772" d="M57 1372q-1 3 -1 6q0 14 18 15h67q18 0 23 -21l221 -1122h6l219 1122q4 20 21 21h67q17 0 17 -16v-5l-277 -1352q-4 -20 -20 -20h-64q-16 0 -20 20z"/>
<glyph unicode="W" horiz-adv-x="1171" d="M66 1372q-1 3 -1 6q0 14 17 15h68q18 0 22 -21l174 -1110h4l189 1110q4 20 20 21h53q16 0 21 -21l190 -1110h6l175 1110q4 20 20 21h68q15 0 15 -14q0 -3 -1 -7l-229 -1352q-4 -20 -21 -20h-59q-16 0 -21 20l-186 1106h-4l-189 -1106q-4 -20 -20 -20h-62q-16 0 -20 20z "/>
<glyph unicode="X" horiz-adv-x="778" d="M63 20l271 705l-250 647q-6 20 14 21h72q16 0 23 -19l194 -514h2l195 514q6 18 22 19h74q18 0 12 -21l-250 -647l273 -705q1 -4 1 -8q0 -12 -16 -12h-71q-16 0 -23 18l-217 566h-2l-215 -566q-6 -18 -22 -18h-74q-14 0 -14 12q0 4 1 8z"/>
<glyph unicode="Y" horiz-adv-x="737" d="M47 1372q-1 5 -1 9q0 11 13 12h72q16 0 23 -21l215 -633h4l211 633q6 20 22 21h72q14 0 14 -12q0 -4 -2 -9l-268 -786v-566q0 -20 -21 -20h-65q-20 0 -21 20v566z"/>
<glyph unicode="Z" horiz-adv-x="716" d="M70 20v56q0 10 1 15t5 13l459 1186v2h-429q-20 0 -20 21v59q0 20 20 21h519q20 0 20 -21v-57q0 -16 -4 -27l-457 -1186v-2h443q20 0 20 -20v-60q0 -20 -20 -20h-537q-20 0 -20 20z"/>
<glyph unicode="[" horiz-adv-x="491" d="M176 -152v1647q0 20 21 21h192q20 0 21 -21v-49q0 -20 -21 -21h-104q-12 0 -13 -12v-1483q0 -12 13 -12h104q20 0 21 -20v-50q0 -20 -21 -20h-192q-20 0 -21 20z"/>
<glyph unicode="\" horiz-adv-x="456" d="M57 1389q-4 20 19 20h45q18 0 22 -20l256 -1385q4 -20 -18 -20h-47q-20 0 -23 20z"/>
<glyph unicode="]" horiz-adv-x="491" d="M82 -102q0 20 20 20h105q12 0 12 12v1483q0 12 -12 12h-105q-20 0 -20 21v49q0 20 20 21h193q20 0 20 -21v-1647q0 -20 -20 -20h-193q-20 0 -20 20v50z"/>
<glyph unicode="^" d="M78 600l250 772q6 20 28 21h47q23 0 29 -21l250 -772q6 -20 -14 -20h-58q-18 0 -26 20l-201 649h-4l-203 -649q-6 -20 -26 -20h-58q-20 0 -14 20z"/>
<glyph unicode="_" horiz-adv-x="745" d="M0 -170h745v-74h-745v74z"/>
<glyph unicode="`" horiz-adv-x="741" d="M240 1427.5q2 6.5 12 6.5h67q20 0 33 -21l146 -248q10 -20 -13 -20h-41q-20 0 -34 20l-168 248q-4 8 -2 14.5z"/>
<glyph unicode="a" horiz-adv-x="735" d="M96 266q0 158 74 224.5t203 66.5h127q12 0 12 12v107q0 119 -39 170t-117 51q-59 0 -99 -18.5t-73 -53.5q-14 -16 -28 -2l-29 43q-8 14 4 31q35 41 93.5 68.5t140.5 27.5q125 0 185 -69.5t60 -239.5v-664q0 -20 -20 -20h-58q-20 0 -20 20v95h-2q-20 -63 -71.5 -97 t-116.5 -34q-45 0 -86 14t-72 48t-49.5 88t-18.5 132zM197 268q0 -102 39.5 -148t105.5 -46q72 0 121 61.5t49 163.5v156q0 12 -12 12h-117q-102 0 -144 -47t-42 -152z"/>
<glyph unicode="b" horiz-adv-x="770" d="M135 20v1352q0 20 21 21h59q20 0 21 -21v-498h2q20 47 63 83t125 36q78 0 131 -36.5t80 -118.5q6 -23 11 -44.5t7 -57.5t3 -95t1 -154q0 -94 -1 -152.5t-3 -95t-7 -58t-11 -42.5q-27 -82 -80 -118.5t-131 -36.5q-82 0 -125 34.5t-63 81.5h-2v-80q0 -20 -21 -20h-59 q-20 0 -21 20zM236 487q0 -86 1 -139t4 -84t6 -48t9 -34q32 -102 141 -102q111 0 144 102q6 16 9 33.5t5 48.5t3 84t1 139t-1 139.5t-3 85t-5 49t-9 34.5q-33 102 -144 102q-53 0 -89 -27.5t-52 -74.5q-6 -16 -9 -34t-6 -49.5t-4 -85t-1 -139.5z"/>
<glyph unicode="c" horiz-adv-x="688" d="M109 487q0 94 1 151.5t3 92.5t7 54.5t11 41.5q53 166 234 166q104 0 168.5 -60.5t78.5 -170.5q1 -3 1 -6q0 -11 -13 -17l-59 -12q-20 -6 -25 14q-12 84 -50 120t-101 36q-47 0 -83 -23.5t-55 -76.5q-4 -16 -8 -34t-6 -48.5t-3 -83.5t-1 -144q0 -90 1 -143t3 -84t6 -48 l8 -34q18 -53 54 -76.5t84 -23.5q63 0 101 36t50 119q4 20 25 15l59 -12q13 -5 13 -17q0 -3 -1 -6q-14 -111 -78.5 -171t-168.5 -60q-180 0 -234 165q-6 20 -11 41t-7 56t-3 91t-1 152z"/>
<glyph unicode="d" horiz-adv-x="770" d="M111 487q0 94 1 153.5t3 95.5t7 57.5t11 44.5q27 82 80 118.5t131 36.5q82 0 125 -35.5t63 -83.5h3v498q0 20 20 21h59q20 0 21 -21v-1352q0 -20 -21 -20h-59q-20 0 -20 20v80h-3q-20 -47 -63 -81.5t-125 -34.5q-78 0 -131 36.5t-80 118.5q-6 20 -11 42t-7 58.5t-3 95 t-1 152.5zM211 487q0 -86 1 -139t3 -84t5 -48t9 -34q33 -102 144 -102q109 0 141 102q6 16 9 33.5t6 48.5t4.5 84t1.5 139t-1.5 139.5t-4.5 85t-6 49t-9 34.5q-16 47 -52 74.5t-89 27.5q-111 0 -144 -102q-6 -16 -9 -34t-5 -49.5t-3 -85t-1 -139.5z"/>
<glyph unicode="e" horiz-adv-x="727" d="M109 487q0 92 1 151.5t4 95.5t7 56.5t10 36.5q53 166 236 166q182 0 235 -166q6 -16 10 -36.5t7.5 -56.5t4.5 -95.5t1 -151.5q0 -20 -21 -20h-383q-12 0 -12 -12q0 -76 1 -123t4 -77t6 -46t7 -29q16 -51 52 -75.5t86 -24.5q63 0 100 31.5t57 103.5q6 20 25 14l55 -12 q18 -4 12 -24q-23 -104 -86 -156.5t-166 -52.5q-86 0 -145 42t-86 124q-6 14 -10 34.5t-7 56t-4 95t-1 151.5zM209 569q0 -12 12 -12h291q12 0 12 12q0 59 -1 98.5t-4 65t-6 39.5t-7 25q-35 102 -139 102t-140 -102q-4 -10 -7 -24.5t-6 -40t-4 -64.5t-1 -99z"/>
<glyph unicode="f" horiz-adv-x="471" d="M74 911v45q0 20 20 21h60q12 0 12 12v178q0 111 49 168.5t164 57.5h31q20 0 20 -21v-55q0 -20 -20 -21h-43q-98 0 -99 -108v-199q0 -12 13 -12h127q20 0 20 -21v-45q0 -20 -20 -20h-127q-12 0 -13 -12v-859q0 -20 -20 -20h-62q-20 0 -20 20v859q0 12 -12 12h-60 q-20 0 -20 20z"/>
<glyph unicode="g" horiz-adv-x="761" d="M109 492q0 90 1 148t4 95t7 59.5t10 41.5q25 76 75 116.5t134 40.5q82 0 123 -35.5t61 -83.5h2v82q0 20 21 21h59q20 0 21 -21v-1050q0 -147 -69.5 -219t-190.5 -72q-86 0 -151.5 44t-88.5 122q-4 18 10 24l58 21q18 10 26 -12q16 -51 56 -77t90 -26q74 0 116.5 44 t42.5 141v215h-2q-20 -47 -61 -83t-123 -36q-84 0 -134 40t-75 118q-6 18 -10 40.5t-7 59.5t-4 94t-1 148zM209 492q0 -84 1 -136.5t3 -84t6 -49t8 -32.5q31 -102 140 -102q104 0 139 102q4 14 8 32t7 49.5t4 84t1 136.5t-1 136t-4 84.5t-7 50t-8 32.5q-35 102 -139 102 q-109 0 -140 -102q-4 -14 -8 -32t-6 -50.5t-3 -85t-1 -135.5z"/>
<glyph unicode="h" horiz-adv-x="778" d="M135 20v1352q0 20 21 21h59q20 0 21 -21v-495h2q20 47 64 81.5t122 34.5q227 0 227 -297v-676q0 -20 -20 -20h-60q-20 0 -20 20v660q0 106 -37 161.5t-121 55.5q-72 0 -114.5 -53t-42.5 -164v-660q0 -20 -21 -20h-59q-20 0 -21 20z"/>
<glyph unicode="i" horiz-adv-x="370" d="M125 1262v110q0 20 20 21h80q20 0 21 -21v-110q0 -20 -21 -21h-80q-20 0 -20 21zM135 20v936q0 20 21 21h59q20 0 21 -21v-936q0 -20 -21 -20h-59q-20 0 -21 20z"/>
<glyph unicode="j" horiz-adv-x="370" d="M25 -293q0 20 20 21h14q41 2 58.5 22.5t17.5 67.5v1138q0 20 21 21h59q20 0 21 -21v-1136q0 -188 -177 -189h-14q-20 0 -20 21v55zM125 1262v110q0 20 20 21h80q20 0 21 -21v-110q0 -20 -21 -21h-80q-20 0 -20 21z"/>
<glyph unicode="k" horiz-adv-x="718" d="M135 20v1352q0 20 21 21h59q20 0 21 -21v-921l280 505q12 20 29 21h67q23 0 13 -21l-213 -364l254 -572q1 -4 1 -7q0 -13 -18 -13h-63q-20 0 -29 20l-205 476l-116 -209v-267q0 -20 -21 -20h-59q-20 0 -21 20z"/>
<glyph unicode="l" horiz-adv-x="423" d="M135 227v1145q0 20 21 21h59q20 0 21 -21v-1157q0 -59 20 -86t70 -37l10 -2q20 -2 20 -20v-58q0 -19 -12 -19q-3 0 -6 1h-14q-104 8 -146.5 59t-42.5 174z"/>
<glyph unicode="m" horiz-adv-x="1193" d="M135 20v936q0 20 21 21h59q20 0 21 -21v-79h2q20 47 64 81.5t122 34.5q152 0 201 -129h2q25 57 77 93t127 36q236 0 236 -297v-676q0 -20 -20 -20h-60q-20 0 -20 20v660q0 217 -160 217q-72 0 -113 -52t-43 -159v-666q0 -20 -20 -20h-60q-20 0 -20 20v660 q0 106 -37 161.5t-121 55.5q-72 0 -114.5 -53t-42.5 -164v-660q0 -20 -21 -20h-59q-20 0 -21 20z"/>
<glyph unicode="n" horiz-adv-x="778" d="M135 20v936q0 20 21 21h59q20 0 21 -21v-79h2q20 47 64 81.5t122 34.5q227 0 227 -297v-676q0 -20 -20 -20h-60q-20 0 -20 20v660q0 106 -37 161.5t-121 55.5q-72 0 -114.5 -53t-42.5 -164v-660q0 -20 -21 -20h-59q-20 0 -21 20z"/>
<glyph unicode="o" horiz-adv-x="741" d="M109 489q0 90 1 146.5t3 91.5t6 56.5t10 41.5q27 84 89.5 126t152.5 42t152.5 -42t88.5 -126q6 -20 10.5 -41.5t6.5 -56.5t3 -91.5t1 -146.5q0 -92 -1 -148t-3 -91t-6.5 -56.5t-10.5 -41.5q-27 -84 -89 -126t-152 -42t-152.5 42t-89.5 126q-6 20 -10 41.5t-6 56.5t-3 91 t-1 148zM209 489q0 -86 1 -139t2 -85t4 -49t9 -34q33 -102 146 -102t145 102q6 16 9 33.5t4 49.5t2 85t1 139t-1 138.5t-2 84t-4 49t-9 34.5q-33 102 -145 102q-113 0 -146 -102q-6 -16 -9 -34t-4 -49.5t-2 -84t-1 -138.5z"/>
<glyph unicode="p" horiz-adv-x="770" d="M135 -348v1304q0 20 21 21h59q20 0 21 -21v-82h2q20 47 63 83t125 36q78 0 131 -36.5t80 -118.5q6 -23 11 -44.5t7 -57.5t3 -95t1 -154q0 -94 -1 -152.5t-3 -95t-7 -58t-11 -42.5q-27 -82 -80 -118.5t-131 -36.5q-82 0 -125 34.5t-63 81.5h-2v-448q0 -20 -21 -21h-59 q-20 0 -21 21zM236 487q0 -86 1 -139t4 -84t6 -48t9 -34q32 -102 141 -102q111 0 144 102q6 16 9 33.5t5 48.5t3 84t1 139t-1 139.5t-3 85t-5 49t-9 34.5q-33 102 -144 102q-53 0 -89 -27.5t-52 -74.5q-6 -16 -9 -34t-6 -49.5t-4 -85t-1 -139.5z"/>
<glyph unicode="q" horiz-adv-x="770" d="M111 487q0 94 1 153.5t3 95.5t7 57.5t11 44.5q27 82 80 118.5t131 36.5q82 0 125 -35.5t63 -83.5h3v82q0 20 20 21h59q20 0 21 -21v-1304q0 -20 -21 -21h-59q-20 0 -20 21v448h-3q-20 -47 -63 -81.5t-125 -34.5q-78 0 -131 36.5t-80 118.5q-6 20 -11 42t-7 58.5t-3 95 t-1 152.5zM211 487q0 -86 1 -139t3 -84t5 -48t9 -34q33 -102 144 -102q109 0 141 102q6 16 9 33.5t6 48.5t4.5 84t1.5 139t-1.5 139.5t-4.5 85t-6 49t-9 34.5q-16 47 -52 74.5t-89 27.5q-111 0 -144 -102q-6 -16 -9 -34t-5 -49.5t-3 -85t-1 -139.5z"/>
<glyph unicode="r" horiz-adv-x="507" d="M135 20v936q0 20 21 21h59q20 0 21 -21v-88h2q18 53 63 89t111 36q25 0 41 -6q13 -4 13 -16q0 -4 -1 -8l-16 -62q-6 -16 -25 -12q-8 2 -31 2q-63 0 -110 -57.5t-47 -178.5v-635q0 -20 -21 -20h-59q-20 0 -21 20z"/>
<glyph unicode="s" horiz-adv-x="686" d="M90 227q-1 4 -1 8q0 16 15 17l56 10q20 4 24 -16q10 -94 54.5 -133t107.5 -39q72 0 112 41t40 137q0 72 -24.5 114t-94.5 70l-86 33q-94 37 -140.5 98.5t-46.5 163.5q0 117 61.5 189.5t178.5 72.5q55 0 97 -17.5t71 -47t46.5 -67.5t21.5 -81q4 -23 -15 -26l-49 -11 q-20 -4 -24 17q-12 63 -47 103t-103 40q-70 0 -104.5 -45t-34.5 -123q0 -59 24.5 -99t96.5 -69l84 -32q109 -41 147.5 -108t38.5 -171q0 -127 -63.5 -199.5t-186.5 -72.5q-113 0 -178.5 61t-77.5 182z"/>
<glyph unicode="t" horiz-adv-x="468" d="M74 911v45q0 20 20 21h60q12 0 12 12v281q0 20 20 20h60q20 0 20 -20v-281q0 -12 13 -12h98q20 0 20 -21v-45q0 -20 -20 -20h-98q-12 0 -13 -12v-699q0 -90 84 -90h27q20 0 20 -20v-56q0 -20 -20 -20h-37q-94 0 -134 43t-40 143v699q0 12 -12 12h-60q-20 0 -20 20z"/>
<glyph unicode="u" horiz-adv-x="770" d="M125 279v677q0 20 20 21h60q20 0 20 -21v-659q0 -109 37 -163t119 -54q72 0 113 52t41 165v659q0 20 20 21h59q20 0 21 -21v-936q0 -20 -21 -20h-59q-20 0 -20 20v80h-3q-20 -47 -62 -81.5t-120 -34.5q-225 0 -225 295z"/>
<glyph unicode="v" horiz-adv-x="686" d="M63 956q-1 3 -1 6q0 14 18 15h63q16 0 21 -21l180 -747h4l176 747q4 20 21 21h63q16 0 16 -13q0 -3 -1 -8l-232 -936q-4 -20 -20 -20h-54q-18 0 -22 20z"/>
<glyph unicode="w" horiz-adv-x="1042" d="M76 956q-1 3 -1 6q0 14 17 15h64q18 0 22 -21l146 -739h4l149 739q4 20 21 21h47q18 0 22 -21l148 -739h4l147 739q4 20 21 21h63q17 0 17 -16v-5l-201 -936q-4 -20 -23 -20h-53q-16 0 -20 20l-148 725h-4l-145 -725q-4 -20 -21 -20h-53q-16 0 -23 20z"/>
<glyph unicode="x" horiz-adv-x="700" d="M68 20l229 486l-209 450q-10 20 10 21h70q18 0 27 -19l157 -348h2l156 348q8 18 27 19h67q20 0 10 -21l-211 -450l230 -486q3 -7 4 -11q0 -9 -14 -9h-72q-18 0 -27 18l-174 383h-2l-172 -383q-10 -18 -26 -18h-72q-13 0 -13 9q0 4 3 11z"/>
<glyph unicode="y" horiz-adv-x="694" d="M68 956q-1 3 -1 6q0 14 17 15h68q16 0 20 -21l176 -741h2l176 741q4 20 21 21h65q17 0 17 -16v-5l-279 -1106q-16 -66 -33.5 -107.5t-42 -66t-56.5 -35t-75 -10.5h-18q-20 0 -21 21v55q0 20 21 21l22 2q41 0 66 23.5t41 88.5l45 183z"/>
<glyph unicode="z" horiz-adv-x="657" d="M78 20v52q0 10 6 22l381 787v4h-346q-20 0 -21 20v51q0 20 21 21h446q20 0 21 -21v-43q0 -12 -6 -24l-387 -791v-4h372q20 0 21 -20v-54q0 -20 -21 -20h-467q-20 0 -20 20z"/>
<glyph unicode="{" horiz-adv-x="555" d="M109 653v49q0 16 20 21q59 8 83 43t24 111v430q0 113 44 161t140 48h33q20 0 20 -21v-49q0 -20 -20 -21h-25q-49 0 -71.5 -26.5t-22.5 -89.5v-400q0 -55 -4 -93t-15.5 -63.5t-30 -43t-44.5 -29.5v-4q27 -12 45 -29.5t29.5 -44.5t15.5 -63.5t4 -92.5v-411q0 -63 22.5 -90 t71.5 -27h25q20 0 20 -20v-50q0 -20 -20 -20h-33q-96 0 -140 48t-44 163v440q0 76 -24 111t-83 43q-20 4 -20 20z"/>
<glyph unicode="|" horiz-adv-x="477" d="M195 -152v1647q0 20 20 21h47q20 0 21 -21v-1647q0 -20 -21 -20h-47q-20 0 -20 20z"/>
<glyph unicode="}" horiz-adv-x="555" d="M82 -102q0 20 20 20h25q49 0 71.5 26.5t22.5 90.5v411q0 55 4 92t15.5 64t29 44.5t45.5 29.5v4q-29 12 -46 29.5t-28.5 43t-15.5 63.5t-4 93v400q0 63 -22.5 89.5t-71.5 26.5h-25q-20 0 -20 21v49q0 20 20 21h33q96 0 140 -48.5t44 -160.5v-430q0 -76 24 -111t83 -43 q20 -4 20 -21v-49q0 -16 -20 -20q-59 -8 -83 -43t-24 -111v-440q0 -115 -44 -163t-140 -48h-33q-20 0 -20 20v50z"/>
<glyph unicode="~" d="M72 524q35 61 78 98t108 37q37 0 69.5 -15t65.5 -38q31 -18 57.5 -32.5t49.5 -14.5q39 0 63.5 20.5t52.5 67.5q10 16 29 8l35 -20q16 -10 8 -29q-35 -61 -77.5 -98t-108.5 -37q-37 0 -70 15.5t-65 37.5q-31 18 -57.5 32.5t-49.5 14.5q-37 0 -62.5 -20.5t-54.5 -67.5 q-10 -16 -28 -8l-35 21q-18 10 -8 28z"/>
<glyph unicode="¡" horiz-adv-x="432" d="M149 823v134q0 20 21 20h92q20 0 20 -20v-134q0 -20 -20 -20h-92q-20 0 -21 20zM162 -395l16 1003q0 20 21 21h36q20 0 21 -21l16 -1003q0 -20 -20 -21h-70q-20 0 -20 21z"/>
<glyph unicode="¢" d="M131 487q0 94 1 151.5t3 92.5t7 54.5t12 41.5q47 150 208 164v172q0 20 21 21h23q20 0 20 -21v-172q92 -8 149.5 -61t73.5 -152q4 -16 -12 -22l-59 -15q-23 -4 -25 15q-25 125 -127 139v-813q102 12 127 137q4 20 25 14l59 -14q16 -4 12 -22q-16 -98 -73.5 -150.5 t-149.5 -60.5v-174q0 -20 -20 -21h-23q-20 0 -21 21v174q-164 16 -208 161q-6 20 -11.5 41t-7.5 56t-3 92t-1 151zM231 487q0 -90 1 -143t3.5 -84t5.5 -47.5t9 -32.5q29 -90 112 -98v813q-84 -12 -112 -98q-6 -16 -9 -32.5t-5.5 -48.5t-3.5 -85t-1 -144z"/>
<glyph unicode="£" d="M84 635v43q0 20 20 20h62q12 0 12 13v411q0 137 60.5 212t177.5 75q123 0 178 -74.5t61 -204.5q0 -20 -16 -22l-55 -10q-25 -4 -25 16q-4 106 -39 152.5t-106 46.5q-135 0 -135 -187v-415q0 -12 12 -13h203q20 0 20 -20v-43q0 -20 -20 -21h-203q-12 0 -12 -12v-305 q0 -78 -15.5 -124t-50.5 -75v-2h430q20 0 21 -20v-56q0 -20 -21 -20h-524q-20 0 -21 20v56q0 12 11 22q39 39 54 80t15 119v305q0 12 -12 12h-62q-20 0 -20 21z"/>
<glyph unicode="¤" d="M90 401q-14 14 0 29l78 78q-47 63 -47 151q0 45 13 84t36 72l-78 78q-16 12 0 29l29 28q14 14 29 0l75 -80q33 23 72 36.5t84 13.5q86 0 151 -50l80 80q14 14 29 0l27 -28q16 -16 0 -29l-78 -78q23 -33 36 -71.5t13 -84.5q0 -43 -12.5 -81.5t-34.5 -69.5l78 -78 q14 -14 0 -29l-29 -30q-12 -12 -29 0l-75 80q-68 -51 -156 -52q-90 0 -158 52l-76 -80q-16 -12 -28 0zM203 659q0 -78 49 -129t129 -51q78 0 127 51.5t49 128.5q0 80 -49 130.5t-127 50.5q-80 0 -129 -50.5t-49 -130.5z"/>
<glyph unicode="¥" d="M78 1372q-6 20 12 21h70q16 0 22 -21l197 -629h6l190 629q6 20 25 21h68q20 0 14 -21l-229 -706v-4h170q20 0 20 -21v-41q0 -20 -20 -20h-181q-12 0 -12 -13v-129q0 -12 12 -12h181q20 0 20 -20v-41q0 -20 -20 -21h-181q-12 0 -12 -12v-312q0 -20 -20 -20h-62 q-20 0 -20 20v312q0 12 -13 12h-178q-20 0 -20 21v41q0 20 20 20h178q12 0 13 12v129q0 12 -13 13h-178q-20 0 -20 20v41q0 20 20 21h168v4z"/>
<glyph unicode="¦" horiz-adv-x="477" d="M195 -152v689q0 20 20 20h47q20 0 21 -20v-689q0 -20 -21 -20h-47q-20 0 -20 20zM195 815v680q0 20 20 21h47q20 0 21 -21v-680q0 -20 -21 -20h-47q-20 0 -20 20z"/>
<glyph unicode="§" horiz-adv-x="868" d="M168 518q0 59 4 97t14 69q18 55 53 94t89 56v2q-43 16 -77 49t-52 88q-10 25 -14.5 57.5t-4.5 81.5t4 80t15 59q25 78 85 118t150 40q182 0 234 -158q10 -29 14 -60.5t4 -86.5q0 -20 -18 -23l-56 -6q-20 -2 -20 19q0 57 -4 83.5t-10 45.5q-16 51 -53.5 74.5t-88.5 23.5 q-53 0 -91 -23.5t-54 -74.5q-6 -18 -9 -43t-3 -68q0 -35 2 -59.5t10 -46.5q18 -55 65 -88t133 -52q82 -20 128.5 -61t68.5 -109q10 -33 15.5 -72.5t5.5 -105.5q0 -59 -5.5 -96t-15.5 -68q-18 -55 -53 -94t-88 -55v-2q45 -16 81 -49t54 -88q10 -25 14 -60t4 -90q0 -53 -4 -84 t-14 -59q-51 -158 -244 -158q-190 0 -241 158q-10 29 -14.5 60.5t-4.5 86.5q0 18 19 23l55 6q20 2 20 -19q0 -57 4.5 -83.5t10.5 -45.5q31 -98 151 -98q119 0 152 98q6 18 9 43t3 70q0 43 -2 69.5t-10 49.5q-18 55 -67.5 88t-135.5 51q-84 20 -129 61t-68 109q-10 33 -15 73 t-5 103zM264 518q0 -61 4 -94t13 -55q36 -109 155 -109q121 0 158 109q8 23 11 55.5t3 93.5q0 63 -3 96t-11 56q-37 109 -158 108q-119 0 -155 -108q-8 -23 -12.5 -55.5t-4.5 -96.5z"/>
<glyph unicode="¨" horiz-adv-x="741" d="M174 1262v110q0 20 21 21h69q20 0 21 -21v-110q0 -20 -21 -21h-69q-20 0 -21 21zM457 1262v110q0 20 20 21h70q20 0 20 -21v-110q0 -20 -20 -21h-70q-20 0 -20 21z"/>
<glyph unicode="©" horiz-adv-x="1503" d="M115 696q0 104 9 176t26 125q66 199 221 305.5t381 106.5q225 0 381.5 -106.5t220.5 -305.5q16 -53 25.5 -124.5t9.5 -176.5q0 -104 -9.5 -175.5t-25.5 -125.5q-63 -199 -220 -305t-382 -106t-381 106.5t-221 304.5q-16 53 -25.5 125t-9.5 176zM199 696q0 -100 8 -167.5 t24 -114.5q55 -172 190.5 -262.5t330.5 -90.5q197 0 331 90.5t189 262.5q16 47 25.5 114.5t9.5 167.5t-9.5 168t-25.5 117q-55 172 -189.5 261t-330.5 89q-195 0 -330 -89t-191 -261q-16 -49 -24 -116.5t-8 -168.5zM549 696q0 74 1 121t3 76t5 44t7 28q43 135 193 135 q90 0 139 -47t59 -111q4 -16 -12 -20l-47 -11q-16 -4 -20 15q-12 43 -41 67.5t-78 24.5q-84 0 -111 -80q-4 -8 -6 -18.5t-3 -35t-2 -69.5t-1 -119t1 -119t2 -69.5t3 -34.5t6 -18q27 -80 111 -80q49 0 77.5 24.5t41.5 67.5q4 18 20 14l47 -10q16 -4 12 -20 q-10 -63 -59 -110.5t-139 -47.5q-150 0 -193 135q-4 12 -7 27.5t-5 44t-3 76t-1 120.5z"/>
<glyph unicode="ª" horiz-adv-x="530" d="M84 965q0 100 50 146t134 46h70q12 0 12 12v43q0 66 -23.5 92.5t-70.5 26.5q-55 0 -104 -41q-18 -12 -29 0l-17 31q-10 14 7 27q27 27 64.5 42t84.5 15q78 0 121 -41t43 -145v-396q0 -20 -20 -20h-35q-20 0 -21 20v41h-2q-10 -29 -42 -49t-73 -20q-66 0 -107.5 42 t-41.5 128zM162 969q0 -49 22.5 -77t63.5 -28q43 0 72.5 34t29.5 87v92q0 12 -12 13h-64q-113 0 -112 -121z"/>
<glyph unicode="«" horiz-adv-x="819" d="M84 526q-14 14 0 29l293 311q6 6 13 4t7 -12v-76q0 -10 -3 -17t-13 -17l-184 -199q-8 -8 0 -17l184 -198q10 -10 13 -17.5t3 -17.5v-76q0 -10 -7 -12t-13 4zM381 526q-14 14 0 29l293 311q6 6 13 4t7 -12v-76q0 -16 -18 -34l-184 -199q-8 -8 0 -17l184 -198 q18 -18 18 -35v-76q0 -10 -7 -12t-13 4z"/>
<glyph unicode="¬" d="M80 539v53q0 20 20 20h559q20 0 21 -20v-256q0 -20 -21 -21h-55q-20 0 -20 21v170q0 12 -13 12h-471q-20 0 -20 21z"/>
<glyph unicode="­" horiz-adv-x="608" d="M84 518v55q0 20 20 21h402q20 0 20 -21v-55q0 -20 -20 -20h-402q-20 0 -20 20z"/>
<glyph unicode="®" horiz-adv-x="876" d="M84 1010q0 59 6 94t14 63q35 111 122 172.5t212 61.5q123 0 211 -63.5t123 -170.5q10 -29 15.5 -64.5t5.5 -92.5q0 -53 -6.5 -93t-14.5 -67q-41 -96 -128 -164t-206 -68q-125 0 -212 60.5t-122 171.5q-8 29 -14 64.5t-6 95.5zM141 1010q0 -49 5.5 -82t13.5 -60 q31 -94 102.5 -146t175.5 -52t176 52t103 146q10 27 14 60t4 82q0 47 -4 79.5t-14 61.5q-29 92 -101.5 144.5t-177.5 52.5q-104 0 -177 -52.5t-101 -144.5q-8 -29 -13.5 -61.5t-5.5 -79.5zM338 809v405q0 18 14 19h84q61 0 92 -28.5t31 -96.5q0 -45 -14.5 -70.5t-40.5 -40.5 q14 -47 28.5 -93t28.5 -93q6 -20 -14 -20h-29q-14 0 -16 18v-2q-12 43 -26.5 87t-26.5 87h-50q-4 0 -4 -6v-166q0 -18 -14 -18h-29q-14 0 -14 18zM395 1038q0 -4 4 -4h35q37 0 52.5 16.5t15.5 57.5t-15.5 56.5t-52.5 15.5h-35q-4 0 -4 -4v-138z"/>
<glyph unicode="¯" horiz-adv-x="741" d="M164 1292v47q0 20 20 21h373q20 0 21 -21v-47q0 -20 -21 -20h-373q-20 0 -20 20z"/>
<glyph unicode="°" horiz-adv-x="655" d="M102 1169q0 98 63.5 162t162.5 64q98 0 161.5 -63.5t63.5 -162.5q0 -98 -63.5 -161.5t-161.5 -63.5t-162 63.5t-64 161.5zM180 1169q0 -66 41 -108.5t107 -42.5t107.5 43t41.5 108q0 66 -42 109t-107 43q-66 0 -107 -43t-41 -109z"/>
<glyph unicode="±" d="M80 20v54q0 20 20 20h559q20 0 21 -20v-54q0 -20 -21 -20h-559q-20 0 -20 20zM80 555v51q0 20 20 21h219q12 0 13 12v223q0 20 20 21h56q20 0 20 -21v-223q0 -12 12 -12h219q20 0 21 -21v-51q0 -20 -21 -20h-219q-12 0 -12 -13v-223q0 -20 -20 -20h-56q-20 0 -20 20v223 q0 12 -13 13h-219q-20 0 -20 20z"/>
<glyph unicode="²" horiz-adv-x="528" d="M78 1511q0 35 3 57.5t9 40.5q37 117 174 117t174 -117q6 -18 9.5 -40.5t3.5 -63.5q0 -57 -17.5 -103.5t-46.5 -93.5l-213 -346v-2h256q20 0 21 -20v-39q0 -20 -21 -21h-330q-20 0 -20 21v43q0 16 8 32l234 390q18 31 30.5 63.5t12.5 75.5q0 35 -3.5 51t-7.5 29 q-10 29 -31.5 45t-60.5 16t-60.5 -16.5t-31.5 -44.5q-4 -12 -6 -29.5t-2 -54.5q0 -23 -23 -19l-43 4q-18 2 -18 25z"/>
<glyph unicode="³" horiz-adv-x="528" d="M78 1069q0 20 18 24l43 6q20 2 21 -20q0 -29 3 -44.5t7 -27.5q10 -29 31.5 -45t60.5 -16t60.5 16t31.5 45q4 12 7.5 31.5t3.5 73.5q0 57 -1.5 75.5t-5.5 28.5q-20 57 -96 57h-16q-20 0 -21 21v39q0 20 21 20h16q76 0 94 56q4 12 6.5 29.5t2.5 62.5q0 37 -3.5 54t-7.5 30 q-10 29 -31.5 45t-60.5 16t-60.5 -16.5t-31.5 -44.5q-4 -12 -7 -27.5t-3 -44.5q0 -23 -21 -20l-43 6q-18 2 -18 24q0 47 12 88q35 115 172 115q139 0 174 -115q6 -20 9.5 -43.5t3.5 -66.5q0 -49 -2.5 -72t-6.5 -39q-16 -51 -69 -74v-2q53 -25 67 -75q6 -16 8.5 -42t2.5 -85 t-3.5 -85t-9.5 -46q-35 -115 -174 -115q-137 0 -172 115q-12 39 -12 88z"/>
<glyph unicode="´" horiz-adv-x="741" d="M244 1165l145 248q12 20 33 21h65q10 0 13.5 -6.5t-2.5 -14.5l-166 -248q-10 -12 -16.5 -16t-18.5 -4h-43q-20 0 -10 20z"/>
<glyph unicode="¶" horiz-adv-x="862" d="M123 961q0 88 24.5 166.5t72.5 138t117 93.5t157 34h192q20 0 21 -21v-1720q0 -20 -21 -21h-47q-20 0 -21 21v1638q0 12 -12 13h-92q-12 0 -12 -13v-1638q0 -20 -21 -21h-49q-20 0 -20 21v876q-137 27 -213 141.5t-76 291.5z"/>
<glyph unicode="·" horiz-adv-x="350" d="M109 477v133q0 20 20 21h92q20 0 21 -21v-133q0 -20 -21 -20h-92q-20 0 -20 20z"/>
<glyph unicode="¸" horiz-adv-x="741" d="M276 -283l107 283q8 20 27 20h45q20 0 14 -20l-92 -283q-6 -20 -33 -20h-53q-20 0 -15 20z"/>
<glyph unicode="¹" horiz-adv-x="528" d="M125 1540v55q0 16 14 24l113 80q14 12 31 13h45q20 0 20 -21v-790q0 -20 -20 -21h-45q-20 0 -21 21v708h-2l-113 -78q-23 -14 -22 9z"/>
<glyph unicode="º" horiz-adv-x="561" d="M98 1017v83v82.5t2 51t4 32t7 24.5q39 115 170 115q63 0 107 -29.5t61 -85.5q4 -12 7 -24.5t4 -32t2 -51t1 -82.5t-1 -83t-2 -51.5t-4 -31.5t-7 -25q-16 -55 -60.5 -84.5t-107.5 -29.5q-131 0 -170 114q-4 12 -6.5 24.5t-4.5 32t-2 51.5zM176 1023q0 -30 1 -47.5t3 -26.5 t4 -15q23 -66 97 -66q72 0 94 66q2 6 4 15t3 26.5t2 47.5t1 77t-1 76.5t-2 47t-3 27t-4 15.5q-23 66 -94 65q-74 0 -97 -65q-2 -6 -4 -15.5t-3 -27t-1 -47v-76.5v-77z"/>
<glyph unicode="»" horiz-adv-x="819" d="M125 223v76q0 16 18 35l185 198q8 8 0 17l-185 199q-18 18 -18 34v76q0 10 7 12t13 -4l293 -311q14 -14 0 -29l-293 -311q-6 -6 -13 -4t-7 12zM422 223v76q0 10 3 17.5t13 17.5l185 198q8 8 0 17l-185 199q-10 10 -13 17t-3 17v76q0 10 7 12t13 -4l293 -311q14 -14 0 -29 l-293 -311q-6 -6 -13 -4t-7 12z"/>
<glyph unicode="¼" horiz-adv-x="1363" d="M162 1221v55q0 16 14 24l113 80q14 12 31 13h45q20 0 20 -21v-790q0 -20 -20 -21h-45q-20 0 -21 21v708h-2l-113 -78q-23 -14 -22 9zM363 4l485 1385q8 20 27 20h45q20 0 14 -20l-487 -1385q-8 -20 -27 -20h-43q-20 0 -14 20zM750 172v41q0 14 6 33l182 567q6 20 23 21 h49q20 0 14 -21l-184 -579v-2h166q12 0 12 12v215q0 20 21 20h41q20 0 20 -20v-215q0 -12 12 -12h66q20 0 20 -21v-39q0 -20 -20 -20h-66q-12 0 -12 -13v-116q0 -20 -20 -21h-41q-20 0 -21 21v116q0 12 -12 13h-236q-20 0 -20 20z"/>
<glyph unicode="½" horiz-adv-x="1400" d="M162 1221v55q0 16 14 24l113 80q14 12 31 13h45q20 0 20 -21v-790q0 -20 -20 -21h-45q-20 0 -21 21v708h-2l-113 -78q-23 -14 -22 9zM363 4l485 1385q8 20 27 20h45q20 0 14 -20l-487 -1385q-8 -20 -27 -20h-43q-20 0 -14 20zM864 633q0 35 3 57.5t9 40.5q37 117 174 117 t174 -117q6 -18 9.5 -40.5t3.5 -63.5q0 -57 -17.5 -103.5t-46.5 -93.5l-213 -346v-2h256q20 0 21 -20v-39q0 -20 -21 -21h-330q-20 0 -20 21v43q0 16 8 32l234 390q18 31 30.5 63.5t12.5 75.5q0 35 -3.5 51t-7.5 29q-10 29 -31.5 45t-60.5 16t-60.5 -16.5t-31.5 -44.5 q-4 -12 -6 -29.5t-2 -54.5q0 -23 -23 -19l-43 4q-18 2 -18 25z"/>
<glyph unicode="¾" horiz-adv-x="1468" d="M164 750q0 20 18 24l43 6q20 2 21 -20q0 -29 3 -44.5t7 -27.5q10 -29 31.5 -45t60.5 -16t60.5 16t31.5 45q4 12 7.5 31.5t3.5 73.5q0 57 -1.5 75.5t-5.5 28.5q-20 57 -96 57h-16q-20 0 -21 21v39q0 20 21 20h16q76 0 94 56q4 12 6.5 29.5t2.5 62.5q0 37 -3.5 54t-7.5 30 q-10 29 -31.5 45t-60.5 16t-60.5 -16.5t-31.5 -44.5q-4 -12 -7 -27.5t-3 -44.5q0 -23 -21 -20l-43 6q-18 2 -18 24q0 47 12 88q35 115 172 115q139 0 174 -115q6 -20 9.5 -43.5t3.5 -66.5q0 -49 -2.5 -72t-6.5 -39q-16 -51 -69 -74v-2q53 -25 67 -75q6 -16 8.5 -42t2.5 -85 t-3.5 -85t-9.5 -46q-35 -115 -174 -115q-137 0 -172 115q-12 39 -12 88zM467 4l485 1385q8 20 27 20h45q20 0 14 -20l-487 -1385q-8 -20 -27 -20h-43q-20 0 -14 20zM856 172v41q0 14 6 33l182 567q6 20 23 21h49q20 0 14 -21l-184 -579v-2h166q12 0 12 12v215q0 20 21 20h41 q20 0 20 -20v-215q0 -12 12 -12h66q20 0 20 -21v-39q0 -20 -20 -20h-66q-12 0 -12 -13v-116q0 -20 -20 -21h-41q-20 0 -21 21v116q0 12 -12 13h-236q-20 0 -20 20z"/>
<glyph unicode="¿" horiz-adv-x="665" d="M88 -117q0 39 3.5 70t10.5 60.5t19.5 59.5t30.5 66l111 211q16 29 22 54.5t6 60.5v143q0 20 21 21h59q20 0 21 -21v-147q0 -41 -7.5 -73t-25.5 -68l-113 -213q-31 -57 -44 -104.5t-13 -119.5q0 -41 4 -68.5t10 -47.5q16 -51 50 -77t91 -26q111 0 144 103q6 20 10 51 t4 108q0 25 23 21l57 -6q20 -2 21 -25q0 -39 -1.5 -67.5t-3.5 -49t-6 -36t-8 -29.5q-27 -78 -88 -122t-152 -44q-188 0 -237 166q-10 25 -14.5 60.5t-4.5 88.5zM275 823v134q0 20 20 20h92q20 0 21 -20v-134q0 -20 -21 -20h-92q-20 0 -20 20z"/>
<glyph unicode="À" horiz-adv-x="794" d="M51 20l293 1352q6 20 23 21h67q18 0 23 -21l286 -1352q4 -20 -18 -20h-66q-18 0 -22 20l-70 334h-340l-69 -334q-4 -20 -21 -20h-65q-10 0 -16.5 5t-4.5 15zM165 1812.5q3 6.5 14 6.5h67q12 0 18.5 -5.5t14.5 -15.5l156 -211q6 -8 3 -14t-14 -6h-41q-18 0 -36 20 l-179 211q-6 8 -3 14.5zM248 451h299l-146 710h-4z"/>
<glyph unicode="Á" horiz-adv-x="794" d="M51 20l293 1352q6 20 23 21h67q18 0 23 -21l286 -1352q4 -20 -18 -20h-66q-18 0 -22 20l-70 334h-340l-69 -334q-4 -20 -21 -20h-65q-10 0 -16.5 5t-4.5 15zM248 451h299l-146 710h-4zM369 1573q-2 6 4 14l154 211q8 10 14 15.5t20 5.5h68q10 0 12 -6.5t-4 -14.5 l-178 -211q-18 -20 -35 -20h-43q-10 0 -12 6z"/>
<glyph unicode="Â" horiz-adv-x="794" d="M51 20l293 1352q6 20 23 21h67q18 0 23 -21l286 -1352q4 -20 -18 -20h-66q-18 0 -22 20l-70 334h-340l-69 -334q-4 -20 -21 -20h-65q-10 0 -16.5 5t-4.5 15zM186 1549q-3 5 3 16l155 250q12 18 31 18h41q18 0 31 -18l156 -250q6 -10 3 -15.5t-14 -5.5h-47q-16 0 -31 21 l-116 176h-4l-117 -176q-8 -10 -14.5 -15.5t-18.5 -5.5h-45q-10 0 -13 5zM248 451h299l-146 710h-4z"/>
<glyph unicode="Ã" horiz-adv-x="794" d="M51 20l293 1352q6 20 23 21h67q18 0 23 -21l286 -1352q4 -20 -18 -20h-66q-18 0 -22 20l-70 334h-340l-69 -334q-4 -20 -21 -20h-65q-10 0 -16.5 5t-4.5 15zM211 1628v62q0 16 17 32q16 23 38.5 36.5t51.5 13.5t51.5 -12.5t42.5 -28.5q18 -16 32.5 -25.5t33.5 -9.5 q25 0 43 15t38 44q6 8 14.5 6t8.5 -12v-61q0 -10 -2 -16.5t-12 -16.5q-18 -23 -40.5 -36t-51.5 -13t-51.5 13t-41.5 30q-18 14 -33.5 23t-33.5 9q-25 0 -42.5 -15t-37.5 -44q-8 -8 -16.5 -6t-8.5 12zM248 451h299l-146 710h-4z"/>
<glyph unicode="Ä" horiz-adv-x="794" d="M51 20l293 1352q6 20 23 21h67q18 0 23 -21l286 -1352q4 -20 -18 -20h-66q-18 0 -22 20l-70 334h-340l-69 -334q-4 -20 -21 -20h-65q-10 0 -16.5 5t-4.5 15zM199 1632v111q0 20 21 20h69q20 0 21 -20v-111q0 -20 -21 -20h-69q-20 0 -21 20zM248 451h299l-146 710h-4z M482 1632v111q0 20 20 20h70q20 0 20 -20v-111q0 -20 -20 -20h-70q-20 0 -20 20z"/>
<glyph unicode="Å" horiz-adv-x="794" d="M51 20l293 1352q6 20 23 21h67q18 0 23 -21l286 -1352q4 -20 -18 -20h-66q-18 0 -22 20l-70 334h-340l-69 -334q-4 -20 -21 -20h-65q-10 0 -16.5 5t-4.5 15zM230 1688q0 72 47 118.5t119 46.5t119 -47t47 -118q0 -72 -47 -120t-119 -48t-119 48t-47 120zM248 451h299 l-146 710h-4zM295 1688q0 -45 28 -76t73 -31t72.5 30.5t27.5 76.5q0 45 -27.5 74.5t-72.5 29.5t-73 -29.5t-28 -74.5z"/>
<glyph unicode="Æ" horiz-adv-x="1220" d="M51 20l522 1352q6 20 27 21h535q20 0 20 -21v-59q0 -20 -20 -21h-375q-12 0 -12 -12v-512q0 -12 12 -12h327q20 0 21 -21v-59q0 -20 -21 -21h-327q-12 0 -12 -12v-530q0 -12 12 -13h375q20 0 20 -20v-60q0 -20 -20 -20h-473q-20 0 -21 20v322q0 12 -12 12h-342l-129 -334 q-8 -20 -27 -20h-65q-20 0 -15 20zM324 451h305q12 0 12 12v799h-4z"/>
<glyph unicode="Ç" horiz-adv-x="765" d="M117 696q0 154 2 246t5 146.5t8 81t11 49.5q61 190 273 190q123 0 196.5 -73.5t87.5 -209.5q2 -23 -12 -26l-61 -13q-23 -8 -23 17q-12 98 -57 151.5t-129 53.5q-131 0 -172 -123q-6 -16 -9.5 -39t-6.5 -74t-4 -139t-1 -238t1 -237.5t4 -139t6.5 -74t9.5 -38.5 q41 -123 172 -123q84 0 129 53t57 154q0 23 23 14l61 -12q16 -2 12 -25q-12 -125 -74.5 -197.5t-166.5 -82.5l-88 -271q-6 -20 -33 -20h-53q-20 0 -15 20l101 269q-172 18 -228 188q-6 23 -11 49.5t-8 80.5t-5 146.5t-2 245.5z"/>
<glyph unicode="È" horiz-adv-x="718" d="M139 20v1352q0 20 21 21h473q20 0 20 -21v-59q0 -20 -20 -21h-375q-12 0 -12 -12v-512q0 -12 12 -12h328q20 0 20 -21v-59q0 -20 -20 -21h-328q-12 0 -12 -12v-530q0 -12 12 -13h375q20 0 20 -20v-60q0 -20 -20 -20h-473q-20 0 -21 20zM179 1812.5q3 6.5 14 6.5h67 q12 0 18.5 -5.5t14.5 -15.5l156 -211q6 -8 3 -14t-14 -6h-41q-18 0 -36 20l-179 211q-6 8 -3 14.5z"/>
<glyph unicode="É" horiz-adv-x="718" d="M139 20v1352q0 20 21 21h473q20 0 20 -21v-59q0 -20 -20 -21h-375q-12 0 -12 -12v-512q0 -12 12 -12h328q20 0 20 -21v-59q0 -20 -20 -21h-328q-12 0 -12 -12v-530q0 -12 12 -13h375q20 0 20 -20v-60q0 -20 -20 -20h-473q-20 0 -21 20zM344 1573q-2 6 4 14l154 211 q8 10 14 15.5t20 5.5h68q10 0 12 -6.5t-4 -14.5l-178 -211q-18 -20 -35 -20h-43q-10 0 -12 6z"/>
<glyph unicode="Ê" horiz-adv-x="718" d="M139 20v1352q0 20 21 21h473q20 0 20 -21v-59q0 -20 -20 -21h-375q-12 0 -12 -12v-512q0 -12 12 -12h328q20 0 20 -21v-59q0 -20 -20 -21h-328q-12 0 -12 -12v-530q0 -12 12 -13h375q20 0 20 -20v-60q0 -20 -20 -20h-473q-20 0 -21 20zM173 1549q-3 5 3 16l155 250 q12 18 31 18h41q18 0 31 -18l156 -250q6 -10 3 -15.5t-14 -5.5h-47q-16 0 -31 21l-116 176h-4l-117 -176q-8 -10 -14.5 -15.5t-18.5 -5.5h-45q-10 0 -13 5z"/>
<glyph unicode="Ë" horiz-adv-x="718" d="M139 20v1352q0 20 21 21h473q20 0 20 -21v-59q0 -20 -20 -21h-375q-12 0 -12 -12v-512q0 -12 12 -12h328q20 0 20 -21v-59q0 -20 -20 -21h-328q-12 0 -12 -12v-530q0 -12 12 -13h375q20 0 20 -20v-60q0 -20 -20 -20h-473q-20 0 -21 20zM192 1632v111q0 20 21 20h69 q20 0 21 -20v-111q0 -20 -21 -20h-69q-20 0 -21 20zM475 1632v111q0 20 20 20h70q20 0 20 -20v-111q0 -20 -20 -20h-70q-20 0 -20 20z"/>
<glyph unicode="Ì" horiz-adv-x="385" d="M-46 1812.5q3 6.5 14 6.5h67q12 0 18.5 -5.5t14.5 -15.5l156 -211q6 -8 3 -14t-14 -6h-41q-18 0 -36 20l-179 211q-6 8 -3 14.5zM139 20v1352q0 20 21 21h65q20 0 21 -21v-1352q0 -20 -21 -20h-65q-20 0 -21 20z"/>
<glyph unicode="Í" horiz-adv-x="385" d="M139 20v1352q0 20 21 21h65q20 0 21 -21v-1352q0 -20 -21 -20h-65q-20 0 -21 20zM164 1573q-2 6 4 14l154 211q8 10 14 15.5t20 5.5h68q10 0 12 -6.5t-4 -14.5l-178 -211q-18 -20 -35 -20h-43q-10 0 -12 6z"/>
<glyph unicode="Î" horiz-adv-x="385" d="M-13 1549q-3 5 3 16l155 250q12 18 31 18h41q18 0 31 -18l156 -250q6 -10 3 -15.5t-14 -5.5h-47q-16 0 -31 21l-116 176h-4l-117 -176q-8 -10 -14.5 -15.5t-18.5 -5.5h-45q-10 0 -13 5zM139 20v1352q0 20 21 21h65q20 0 21 -21v-1352q0 -20 -21 -20h-65q-20 0 -21 20z "/>
<glyph unicode="Ï" horiz-adv-x="385" d="M0 1632v111q0 20 21 20h69q20 0 21 -20v-111q0 -20 -21 -20h-69q-20 0 -21 20zM139 20v1352q0 20 21 21h65q20 0 21 -21v-1352q0 -20 -21 -20h-65q-20 0 -21 20zM283 1632v111q0 20 20 20h70q20 0 20 -20v-111q0 -20 -20 -20h-70q-20 0 -20 20z"/>
<glyph unicode="Ð" horiz-adv-x="864" d="M37 682v49q0 20 20 21h70q12 0 12 12v608q0 20 21 21h250q127 0 198.5 -53.5t104.5 -153.5q8 -29 15 -64t10 -89t5 -135t2 -202t-2 -201.5t-5 -135t-10 -89t-15 -63.5q-33 -100 -104.5 -153.5t-198.5 -53.5h-250q-20 0 -21 20v629q0 12 -12 13h-70q-20 0 -20 20zM246 113 q0 -12 12 -13h139q88 0 138.5 35t74.5 107q8 25 13.5 55.5t8.5 80.5t5 127t2 191q0 115 -2 192t-5 127t-8.5 80.5t-13.5 55.5q-25 72 -75 106.5t-138 34.5h-139q-12 0 -12 -12v-516q0 -12 12 -12h154q20 0 20 -21v-49q0 -20 -20 -20h-154q-12 0 -12 -13v-536z"/>
<glyph unicode="Ñ" horiz-adv-x="903" d="M139 20v1352q0 20 21 21h82q25 0 32 -21l385 -1141h7v1141q0 20 20 21h57q20 0 21 -21v-1352q0 -20 -21 -20h-77q-25 0 -33 20l-389 1141h-6v-1141q0 -20 -21 -20h-57q-20 0 -21 20zM258 1628v62q0 16 17 32q16 23 38.5 36.5t51.5 13.5t51.5 -12.5t42.5 -28.5 q18 -16 32.5 -25.5t33.5 -9.5q25 0 43 15t38 44q6 8 14.5 6t8.5 -12v-61q0 -10 -2 -16.5t-12 -16.5q-18 -23 -40.5 -36t-51.5 -13t-51.5 13t-41.5 30q-18 14 -33.5 23t-33.5 9q-25 0 -42.5 -15t-37.5 -44q-8 -8 -16.5 -6t-8.5 12z"/>
<glyph unicode="Ò" horiz-adv-x="847" d="M117 696q0 154 1 246t4 145.5t8 81t13 50.5q61 190 281 190q219 0 281 -190q8 -23 13 -50.5t8 -81t4 -145.5t1 -246t-1 -246t-4 -145t-8 -80.5t-13 -50.5q-62 -190 -281 -190t-281 190q-8 23 -13 50.5t-8 80.5t-4 145.5t-1 245.5zM189 1812.5q3 6.5 14 6.5h67 q12 0 18.5 -5.5t14.5 -15.5l156 -211q6 -8 3 -14t-14 -6h-41q-18 0 -36 20l-179 211q-6 8 -3 14.5zM225 696q0 -150 1 -238.5t4 -138t6.5 -72t9.5 -40.5q43 -123 178 -123q137 0 178 123q6 18 10 40.5t7.5 72t4.5 138.5t1 238q0 150 -1 239t-4.5 138t-7.5 71.5t-10 41.5 q-20 63 -66.5 93t-111.5 30q-137 0 -178 -123q-6 -18 -9.5 -41t-6.5 -72t-4 -138t-1 -239z"/>
<glyph unicode="Ó" horiz-adv-x="847" d="M117 696q0 154 1 246t4 145.5t8 81t13 50.5q61 190 281 190q219 0 281 -190q8 -23 13 -50.5t8 -81t4 -145.5t1 -246t-1 -246t-4 -145t-8 -80.5t-13 -50.5q-62 -190 -281 -190t-281 190q-8 23 -13 50.5t-8 80.5t-4 145.5t-1 245.5zM225 696q0 -150 1 -238.5t4 -138 t6.5 -72t9.5 -40.5q43 -123 178 -123q137 0 178 123q6 18 10 40.5t7.5 72t4.5 138.5t1 238q0 150 -1 239t-4.5 138t-7.5 71.5t-10 41.5q-20 63 -66.5 93t-111.5 30q-137 0 -178 -123q-6 -18 -9.5 -41t-6.5 -72t-4 -138t-1 -239zM379 1573q-2 6 4 14l154 211q8 10 14 15.5 t20 5.5h68q10 0 12 -6.5t-4 -14.5l-178 -211q-18 -20 -35 -20h-43q-10 0 -12 6z"/>
<glyph unicode="Ô" horiz-adv-x="847" d="M117 696q0 154 1 246t4 145.5t8 81t13 50.5q61 190 281 190q219 0 281 -190q8 -23 13 -50.5t8 -81t4 -145.5t1 -246t-1 -246t-4 -145t-8 -80.5t-13 -50.5q-62 -190 -281 -190t-281 190q-8 23 -13 50.5t-8 80.5t-4 145.5t-1 245.5zM214 1549q-3 5 3 16l155 250 q12 18 31 18h41q18 0 31 -18l156 -250q6 -10 3 -15.5t-14 -5.5h-47q-16 0 -31 21l-116 176h-4l-117 -176q-8 -10 -14.5 -15.5t-18.5 -5.5h-45q-10 0 -13 5zM225 696q0 -150 1 -238.5t4 -138t6.5 -72t9.5 -40.5q43 -123 178 -123q137 0 178 123q6 18 10 40.5t7.5 72 t4.5 138.5t1 238q0 150 -1 239t-4.5 138t-7.5 71.5t-10 41.5q-20 63 -66.5 93t-111.5 30q-137 0 -178 -123q-6 -18 -9.5 -41t-6.5 -72t-4 -138t-1 -239z"/>
<glyph unicode="Õ" horiz-adv-x="847" d="M117 696q0 154 1 246t4 145.5t8 81t13 50.5q61 190 281 190q219 0 281 -190q8 -23 13 -50.5t8 -81t4 -145.5t1 -246t-1 -246t-4 -145t-8 -80.5t-13 -50.5q-62 -190 -281 -190t-281 190q-8 23 -13 50.5t-8 80.5t-4 145.5t-1 245.5zM225 696q0 -150 1 -238.5t4 -138 t6.5 -72t9.5 -40.5q43 -123 178 -123q137 0 178 123q6 18 10 40.5t7.5 72t4.5 138.5t1 238q0 150 -1 239t-4.5 138t-7.5 71.5t-10 41.5q-20 63 -66.5 93t-111.5 30q-137 0 -178 -123q-6 -18 -9.5 -41t-6.5 -72t-4 -138t-1 -239zM237 1628v62q0 16 17 32q16 23 38.5 36.5 t51.5 13.5t51.5 -12.5t42.5 -28.5q18 -16 32.5 -25.5t33.5 -9.5q25 0 43 15t38 44q6 8 14.5 6t8.5 -12v-61q0 -10 -2 -16.5t-12 -16.5q-18 -23 -40.5 -36t-51.5 -13t-51.5 13t-41.5 30q-18 14 -33.5 23t-33.5 9q-25 0 -42.5 -15t-37.5 -44q-8 -8 -16.5 -6t-8.5 12z"/>
<glyph unicode="Ö" horiz-adv-x="847" d="M117 696q0 154 1 246t4 145.5t8 81t13 50.5q61 190 281 190q219 0 281 -190q8 -23 13 -50.5t8 -81t4 -145.5t1 -246t-1 -246t-4 -145t-8 -80.5t-13 -50.5q-62 -190 -281 -190t-281 190q-8 23 -13 50.5t-8 80.5t-4 145.5t-1 245.5zM225 696q0 -150 1 -238.5t4 -138 t6.5 -72t9.5 -40.5q43 -123 178 -123q137 0 178 123q6 18 10 40.5t7.5 72t4.5 138.5t1 238q0 150 -1 239t-4.5 138t-7.5 71.5t-10 41.5q-20 63 -66.5 93t-111.5 30q-137 0 -178 -123q-6 -18 -9.5 -41t-6.5 -72t-4 -138t-1 -239zM227 1632v111q0 20 21 20h69q20 0 21 -20 v-111q0 -20 -21 -20h-69q-20 0 -21 20zM510 1632v111q0 20 20 20h70q20 0 20 -20v-111q0 -20 -20 -20h-70q-20 0 -20 20z"/>
<glyph unicode="×" d="M133 352q-18 14 0 29l176 176q6 8 0 16l-176 177q-18 14 0 28l33 37q14 14 29 0l178 -176q8 -8 16 0l176 176q14 14 29 0l35 -37q14 -14 0 -28l-176 -177q-8 -8 0 -16l176 -176q14 -14 0 -29l-35 -37q-14 -14 -29 0l-176 177q-8 8 -16 0l-178 -177q-14 -14 -29 0z"/>
<glyph unicode="Ø" horiz-adv-x="847" d="M117 696q0 154 1 246t4 145.5t8 81t13 50.5q61 190 281 190q123 0 201 -66l32 91q6 20 25 20h31q10 0 14 -5t0 -15l-55 -146q10 -16 18 -33.5t15 -35.5q8 -23 13 -50.5t8 -81t4 -145.5t1 -246t-1 -246t-4 -145t-8 -80.5t-13 -50.5q-61 -190 -281 -190q-125 0 -201 63 l-33 -88q-6 -20 -24 -20h-31q-20 0 -14 20l53 147q-18 31 -31 68q-8 23 -13 50.5t-8 80.5t-4 145.5t-1 245.5zM225 520q0 -74 1 -124t3 -82.5t4 -53.5l347 975q-49 74 -156 74q-137 0 -178 -123q-6 -18 -9.5 -41t-6.5 -72t-4 -138t-1 -239v-176zM268 158q52 -74 156 -74 q137 0 178 123q6 18 10 40.5t7.5 72t4.5 138.5t1 238q0 102 -1 176t-2 124.5t-3.5 82t-4.5 51.5z"/>
<glyph unicode="Ù" horiz-adv-x="876" d="M137 328v1044q0 20 21 21h65q20 0 21 -21v-1053q0 -123 53 -179t141 -56t142.5 56.5t54.5 178.5v1053q0 20 20 21h64q20 0 20 -21v-1044q0 -174 -83 -259t-218 -85t-218 85t-83 259zM222 1812.5q3 6.5 14 6.5h67q12 0 18.5 -5.5t14.5 -15.5l156 -211q6 -8 3 -14t-14 -6 h-41q-18 0 -36 20l-179 211q-6 8 -3 14.5z"/>
<glyph unicode="Ú" horiz-adv-x="876" d="M137 328v1044q0 20 21 21h65q20 0 21 -21v-1053q0 -123 53 -179t141 -56t142.5 56.5t54.5 178.5v1053q0 20 20 21h64q20 0 20 -21v-1044q0 -174 -83 -259t-218 -85t-218 85t-83 259zM393 1573q-2 6 4 14l154 211q8 10 14 15.5t20 5.5h68q10 0 12 -6.5t-4 -14.5l-178 -211 q-18 -20 -35 -20h-43q-10 0 -12 6z"/>
<glyph unicode="Û" horiz-adv-x="876" d="M137 328v1044q0 20 21 21h65q20 0 21 -21v-1053q0 -123 53 -179t141 -56t142.5 56.5t54.5 178.5v1053q0 20 20 21h64q20 0 20 -21v-1044q0 -174 -83 -259t-218 -85t-218 85t-83 259zM229 1549q-3 5 3 16l155 250q12 18 31 18h41q18 0 31 -18l156 -250q6 -10 3 -15.5 t-14 -5.5h-47q-16 0 -31 21l-116 176h-4l-117 -176q-8 -10 -14.5 -15.5t-18.5 -5.5h-45q-10 0 -13 5z"/>
<glyph unicode="Ü" horiz-adv-x="876" d="M137 328v1044q0 20 21 21h65q20 0 21 -21v-1053q0 -123 53 -179t141 -56t142.5 56.5t54.5 178.5v1053q0 20 20 21h64q20 0 20 -21v-1044q0 -174 -83 -259t-218 -85t-218 85t-83 259zM242 1632v111q0 20 21 20h69q20 0 21 -20v-111q0 -20 -21 -20h-69q-20 0 -21 20z M525 1632v111q0 20 20 20h70q20 0 20 -20v-111q0 -20 -20 -20h-70q-20 0 -20 20z"/>
<glyph unicode="Ý" horiz-adv-x="737" d="M47 1372q-6 20 12 21h72q16 0 23 -21l215 -633h4l211 633q6 20 22 21h72q18 0 12 -21l-268 -786v-566q0 -20 -21 -20h-65q-20 0 -21 20v566zM322 1573q-2 6 4 14l154 211q8 10 14 15.5t20 5.5h68q10 0 12 -6.5t-4 -14.5l-178 -211q-18 -20 -35 -20h-43q-10 0 -12 6z"/>
<glyph unicode="Þ" horiz-adv-x="792" d="M139 20v1352q0 20 21 21h65q20 0 21 -21v-244q0 -12 12 -12h102q184 0 270.5 -92t86.5 -311q0 -217 -87 -311.5t-270 -94.5h-102q-12 0 -12 -12v-275q0 -20 -21 -20h-65q-20 0 -21 20zM246 420q0 -12 12 -12h102q137 0 193.5 68.5t56.5 236.5q0 166 -56 234.5t-194 68.5 h-102q-12 0 -12 -12v-584z"/>
<glyph unicode="ß" horiz-adv-x="802" d="M135 20v1084q0 152 69.5 228.5t198.5 76.5t202 -72.5t73 -220.5q0 -59 -5 -101t-18.5 -72t-36 -50.5t-57.5 -34.5v-4q35 -14 62.5 -40t44.5 -79q6 -16 9 -34.5t6 -50.5t4 -80t1 -124q0 -78 -1 -129t-4 -84.5t-6 -54t-9 -37.5q-27 -80 -82.5 -113.5t-143.5 -33.5h-20 q-20 0 -21 20v56q0 20 21 20h14q53 0 86 20.5t49 69.5q4 12 7.5 27.5t4.5 45.5t2 76t1 117q0 72 -1 118t-2 75t-4.5 44t-7.5 28q-33 90 -135 90h-14q-20 0 -21 20v56q0 20 21 20h10q51 0 84 16.5t47 59.5q8 23 11.5 49.5t3.5 89.5q0 104 -45.5 152.5t-126.5 48.5 q-80 0 -125 -48t-45 -153v-1092q0 -20 -21 -20h-59q-20 0 -21 20z"/>
<glyph unicode="à" horiz-adv-x="735" d="M96 266q0 158 74 224.5t203 66.5h127q12 0 12 12v107q0 119 -39 170t-117 51q-59 0 -99 -18.5t-73 -53.5q-14 -16 -28 -2l-29 43q-8 14 4 31q35 41 93.5 68.5t140.5 27.5q125 0 185 -69.5t60 -239.5v-664q0 -20 -20 -20h-58q-20 0 -20 20v95h-2q-20 -63 -71.5 -97 t-116.5 -34q-45 0 -86 14t-72 48t-49.5 88t-18.5 132zM158 1427.5q2 6.5 12 6.5h67q20 0 33 -21l146 -248q10 -20 -13 -20h-41q-20 0 -34 20l-168 248q-4 8 -2 14.5zM197 268q0 -102 39.5 -148t105.5 -46q72 0 121 61.5t49 163.5v156q0 12 -12 12h-117q-102 0 -144 -47 t-42 -152z"/>
<glyph unicode="á" horiz-adv-x="735" d="M96 266q0 158 74 224.5t203 66.5h127q12 0 12 12v107q0 119 -39 170t-117 51q-59 0 -99 -18.5t-73 -53.5q-14 -16 -28 -2l-29 43q-8 14 4 31q35 41 93.5 68.5t140.5 27.5q125 0 185 -69.5t60 -239.5v-664q0 -20 -20 -20h-58q-20 0 -20 20v95h-2q-20 -63 -71.5 -97 t-116.5 -34q-45 0 -86 14t-72 48t-49.5 88t-18.5 132zM197 268q0 -102 39.5 -148t105.5 -46q72 0 121 61.5t49 163.5v156q0 12 -12 12h-117q-102 0 -144 -47t-42 -152zM314 1165l145 248q12 20 33 21h65q10 0 13.5 -6.5t-2.5 -14.5l-166 -248q-10 -12 -16.5 -16t-18.5 -4 h-43q-20 0 -10 20z"/>
<glyph unicode="â" horiz-adv-x="735" d="M96 266q0 158 74 224.5t203 66.5h127q12 0 12 12v107q0 119 -39 170t-117 51q-59 0 -99 -18.5t-73 -53.5q-14 -16 -28 -2l-29 43q-8 14 4 31q35 41 93.5 68.5t140.5 27.5q125 0 185 -69.5t60 -239.5v-664q0 -20 -20 -20h-58q-20 0 -20 20v95h-2q-20 -63 -71.5 -97 t-116.5 -34q-45 0 -86 14t-72 48t-49.5 88t-18.5 132zM161 1150q-3 5 3 15l155 250q12 18 31 19h41q18 0 31 -19l156 -250q6 -10 3 -15t-14 -5h-47q-16 0 -31 20l-116 176h-4l-117 -176q-8 -10 -14.5 -15t-18.5 -5h-45q-10 0 -13 5zM197 268q0 -102 39.5 -148t105.5 -46 q72 0 121 61.5t49 163.5v156q0 12 -12 12h-117q-102 0 -144 -47t-42 -152z"/>
<glyph unicode="ã" horiz-adv-x="735" d="M96 266q0 158 74 224.5t203 66.5h127q12 0 12 12v107q0 119 -39 170t-117 51q-59 0 -99 -18.5t-73 -53.5q-14 -16 -28 -2l-29 43q-8 14 4 31q35 41 93.5 68.5t140.5 27.5q125 0 185 -69.5t60 -239.5v-664q0 -20 -20 -20h-58q-20 0 -20 20v95h-2q-20 -63 -71.5 -97 t-116.5 -34q-45 0 -86 14t-72 48t-49.5 88t-18.5 132zM184 1245v62q0 16 17 32q37 47 90 47q29 0 51.5 -12t42.5 -28q18 -14 32.5 -23.5t33.5 -9.5q25 0 43 14t38 43q6 10 14.5 8t8.5 -12v-61q0 -10 -2 -16.5t-12 -16.5q-18 -23 -40.5 -36t-51.5 -13t-51.5 12t-41.5 29 q-18 16 -33.5 25t-33.5 9q-25 0 -42.5 -15t-37.5 -44q-8 -8 -16.5 -6t-8.5 12zM197 268q0 -102 39.5 -148t105.5 -46q72 0 121 61.5t49 163.5v156q0 12 -12 12h-117q-102 0 -144 -47t-42 -152z"/>
<glyph unicode="ä" horiz-adv-x="735" d="M96 266q0 158 74 224.5t203 66.5h127q12 0 12 12v107q0 119 -39 170t-117 51q-59 0 -99 -18.5t-73 -53.5q-14 -16 -28 -2l-29 43q-8 14 4 31q35 41 93.5 68.5t140.5 27.5q125 0 185 -69.5t60 -239.5v-664q0 -20 -20 -20h-58q-20 0 -20 20v95h-2q-20 -63 -71.5 -97 t-116.5 -34q-45 0 -86 14t-72 48t-49.5 88t-18.5 132zM174 1262v110q0 20 21 21h69q20 0 21 -21v-110q0 -20 -21 -21h-69q-20 0 -21 21zM197 268q0 -102 39.5 -148t105.5 -46q72 0 121 61.5t49 163.5v156q0 12 -12 12h-117q-102 0 -144 -47t-42 -152zM457 1262v110 q0 20 20 21h70q20 0 20 -21v-110q0 -20 -20 -21h-70q-20 0 -20 21z"/>
<glyph unicode="å" horiz-adv-x="735" d="M96 266q0 158 74 224.5t203 66.5h127q12 0 12 12v107q0 119 -39 170t-117 51q-59 0 -99 -18.5t-73 -53.5q-14 -16 -28 -2l-29 43q-8 14 4 31q35 41 93.5 68.5t140.5 27.5q125 0 185 -69.5t60 -239.5v-664q0 -20 -20 -20h-58q-20 0 -20 20v95h-2q-20 -63 -71.5 -97 t-116.5 -34q-45 0 -86 14t-72 48t-49.5 88t-18.5 132zM197 268q0 -102 39.5 -148t105.5 -46q72 0 121 61.5t49 163.5v156q0 12 -12 12h-117q-102 0 -144 -47t-42 -152zM205 1303q0 72 47 118.5t119 46.5t119 -47t47 -118q0 -72 -47 -119t-119 -47t-119 47t-47 119zM270 1303 q0 -45 28 -75t73 -30t72.5 29.5t27.5 75.5q0 45 -27.5 74.5t-72.5 29.5t-73 -29.5t-28 -74.5z"/>
<glyph unicode="æ" horiz-adv-x="1126" d="M96 266q0 158 74 224.5t203 66.5h127q12 0 12 12v107q0 119 -39 170t-117 51q-59 0 -99 -18.5t-73 -53.5q-14 -16 -28 -2l-29 43q-8 14 4 31q35 41 93.5 68.5t140.5 27.5q147 0 200 -108h2q29 53 82 80.5t119 27.5q182 0 236 -166q6 -16 10 -36.5t7 -56.5t4 -95t1 -152 q0 -20 -20 -20h-383q-12 0 -13 -12q0 -76 1 -123t4 -77t6.5 -46t7.5 -29q16 -51 52 -75.5t85 -24.5q63 0 100 31.5t58 103.5q6 20 24 14l56 -12q18 -4 12 -24q-23 -104 -86.5 -156.5t-165.5 -52.5q-78 0 -135.5 34.5t-83.5 106.5h-2q-72 -141 -219 -141q-45 0 -86 15t-73 49 t-50.5 87t-18.5 131zM197 268q0 -100 39.5 -147t105.5 -47q72 0 121 61.5t49 163.5v156q0 12 -12 12h-117q-102 0 -144 -47t-42 -152zM610 569q0 -12 13 -12h290q12 0 13 12q0 59 -1 98.5t-4 65t-6.5 39.5t-7.5 25q-35 102 -139 102t-139 -102q-4 -10 -7.5 -24.5t-6.5 -40 t-4 -64.5t-1 -99z"/>
<glyph unicode="ç" horiz-adv-x="688" d="M109 487q0 94 1 151.5t3 92.5t7 54.5t11 41.5q53 166 234 166q104 0 168.5 -60.5t78.5 -170.5q4 -16 -12 -23l-59 -12q-20 -6 -25 14q-12 84 -50 120t-101 36q-47 0 -83 -23.5t-55 -76.5q-4 -16 -8 -34t-6 -48.5t-3 -83.5t-1 -144q0 -90 1 -143t3 -84t6 -48l8 -34 q18 -53 54 -76.5t84 -23.5q63 0 101 36t50 119q4 20 25 15l59 -12q16 -6 12 -23q-12 -100 -66 -158.5t-143 -70.5l-86 -267q-6 -20 -32 -20h-54q-20 0 -14 20l100 269q-143 18 -186 161q-6 20 -11 41t-7 56t-3 91t-1 152z"/>
<glyph unicode="è" horiz-adv-x="727" d="M109 487q0 92 1 151.5t4 95.5t7 56.5t10 36.5q53 166 236 166q182 0 235 -166q6 -16 10 -36.5t7.5 -56.5t4.5 -95.5t1 -151.5q0 -20 -21 -20h-383q-12 0 -12 -12q0 -76 1 -123t4 -77t6 -46t7 -29q16 -51 52 -75.5t86 -24.5q63 0 100 31.5t57 103.5q6 20 25 14l55 -12 q18 -4 12 -24q-23 -104 -86 -156.5t-166 -52.5q-86 0 -145 42t-86 124q-6 14 -10 34.5t-7 56t-4 95t-1 151.5zM140 1427.5q2 6.5 12 6.5h67q20 0 33 -21l146 -248q10 -20 -13 -20h-41q-20 0 -34 20l-168 248q-4 8 -2 14.5zM209 569q0 -12 12 -12h291q12 0 12 12 q0 59 -1 98.5t-4 65t-6 39.5t-7 25q-35 102 -139 102t-140 -102q-4 -10 -7 -24.5t-6 -40t-4 -64.5t-1 -99z"/>
<glyph unicode="é" horiz-adv-x="727" d="M109 487q0 92 1 151.5t4 95.5t7 56.5t10 36.5q53 166 236 166q182 0 235 -166q6 -16 10 -36.5t7.5 -56.5t4.5 -95.5t1 -151.5q0 -20 -21 -20h-383q-12 0 -12 -12q0 -76 1 -123t4 -77t6 -46t7 -29q16 -51 52 -75.5t86 -24.5q63 0 100 31.5t57 103.5q6 20 25 14l55 -12 q18 -4 12 -24q-23 -104 -86 -156.5t-166 -52.5q-86 0 -145 42t-86 124q-6 14 -10 34.5t-7 56t-4 95t-1 151.5zM209 569q0 -12 12 -12h291q12 0 12 12q0 59 -1 98.5t-4 65t-6 39.5t-7 25q-35 102 -139 102t-140 -102q-4 -10 -7 -24.5t-6 -40t-4 -64.5t-1 -99zM314 1165 l145 248q12 20 33 21h65q10 0 13.5 -6.5t-2.5 -14.5l-166 -248q-10 -12 -16.5 -16t-18.5 -4h-43q-20 0 -10 20z"/>
<glyph unicode="ê" horiz-adv-x="727" d="M109 487q0 92 1 151.5t4 95.5t7 56.5t10 36.5q53 166 236 166q182 0 235 -166q6 -16 10 -36.5t7.5 -56.5t4.5 -95.5t1 -151.5q0 -20 -21 -20h-383q-12 0 -12 -12q0 -76 1 -123t4 -77t6 -46t7 -29q16 -51 52 -75.5t86 -24.5q63 0 100 31.5t57 103.5q6 20 25 14l55 -12 q18 -4 12 -24q-23 -104 -86 -156.5t-166 -52.5q-86 0 -145 42t-86 124q-6 14 -10 34.5t-7 56t-4 95t-1 151.5zM157 1150q-3 5 3 15l155 250q12 18 31 19h41q18 0 31 -19l156 -250q6 -10 3 -15t-14 -5h-47q-16 0 -31 20l-116 176h-4l-117 -176q-8 -10 -14.5 -15t-18.5 -5h-45 q-10 0 -13 5zM209 569q0 -12 12 -12h291q12 0 12 12q0 59 -1 98.5t-4 65t-6 39.5t-7 25q-35 102 -139 102t-140 -102q-4 -10 -7 -24.5t-6 -40t-4 -64.5t-1 -99z"/>
<glyph unicode="ë" horiz-adv-x="727" d="M109 487q0 92 1 151.5t4 95.5t7 56.5t10 36.5q53 166 236 166q182 0 235 -166q6 -16 10 -36.5t7.5 -56.5t4.5 -95.5t1 -151.5q0 -20 -21 -20h-383q-12 0 -12 -12q0 -76 1 -123t4 -77t6 -46t7 -29q16 -51 52 -75.5t86 -24.5q63 0 100 31.5t57 103.5q6 20 25 14l55 -12 q18 -4 12 -24q-23 -104 -86 -156.5t-166 -52.5q-86 0 -145 42t-86 124q-6 14 -10 34.5t-7 56t-4 95t-1 151.5zM170 1262v110q0 20 21 21h69q20 0 21 -21v-110q0 -20 -21 -21h-69q-20 0 -21 21zM209 569q0 -12 12 -12h291q12 0 12 12q0 59 -1 98.5t-4 65t-6 39.5t-7 25 q-35 102 -139 102t-140 -102q-4 -10 -7 -24.5t-6 -40t-4 -64.5t-1 -99zM453 1262v110q0 20 20 21h70q20 0 20 -21v-110q0 -20 -20 -21h-70q-20 0 -20 21z"/>
<glyph unicode="ì" horiz-adv-x="370" d="M-30 1427.5q2 6.5 12 6.5h67q20 0 33 -21l146 -248q10 -20 -13 -20h-41q-20 0 -34 20l-168 248q-4 8 -2 14.5zM135 20v936q0 20 21 21h59q20 0 21 -21v-936q0 -20 -21 -20h-59q-20 0 -21 20z"/>
<glyph unicode="í" horiz-adv-x="370" d="M135 20v936q0 20 21 21h59q20 0 21 -21v-936q0 -20 -21 -20h-59q-20 0 -21 20zM158 1165l145 248q12 20 33 21h65q10 0 13.5 -6.5t-2.5 -14.5l-166 -248q-10 -12 -16.5 -16t-18.5 -4h-43q-20 0 -10 20z"/>
<glyph unicode="î" horiz-adv-x="370" d="M-21 1150q-3 5 3 15l155 250q12 18 31 19h41q18 0 31 -19l156 -250q6 -10 3 -15t-14 -5h-47q-16 0 -31 20l-116 176h-4l-117 -176q-8 -10 -14.5 -15t-18.5 -5h-45q-10 0 -13 5zM135 20v936q0 20 21 21h59q20 0 21 -21v-936q0 -20 -21 -20h-59q-20 0 -21 20z"/>
<glyph unicode="ï" horiz-adv-x="370" d="M-8 1262v110q0 20 21 21h69q20 0 21 -21v-110q0 -20 -21 -21h-69q-20 0 -21 21zM135 20v936q0 20 21 21h59q20 0 21 -21v-936q0 -20 -21 -20h-59q-20 0 -21 20zM275 1262v110q0 20 20 21h70q20 0 20 -21v-110q0 -20 -20 -21h-70q-20 0 -20 21z"/>
<glyph unicode="ð" horiz-adv-x="741" d="M109 477q0 88 1 144.5t3 91.5t6 56.5t10 41.5q27 78 85 120t142 42q66 0 101 -25h2l-99 189l-137 -43q-18 -6 -24 12l-13 39q-6 20 13 26l123 39l-84 162q-10 20 12 21h65q18 0 29 -21l68 -133l131 43q18 6 24 -12l13 -41q6 -18 -13 -25l-116 -39l71 -135 q37 -68 58.5 -120t33 -110.5t15.5 -132t4 -186.5q0 -90 -1 -144t-3 -89t-6.5 -55.5t-10.5 -40.5q-27 -84 -89 -126t-152 -42t-152.5 42t-89.5 126q-6 20 -10 40.5t-6 54.5t-3 88t-1 142zM209 477q0 -84 1 -134t2 -81t4 -47t9 -33q33 -102 146 -102q109 0 145 102 q4 16 7 32.5t5 47.5t3 81t1 134q0 80 -1 130t-4 82t-7 51.5t-10 35.5q-33 102 -139 103q-111 0 -146 -103q-6 -16 -9 -33.5t-4 -48t-2 -82t-1 -135.5z"/>
<glyph unicode="ñ" horiz-adv-x="778" d="M135 20v936q0 20 21 21h59q20 0 21 -21v-79h2q20 47 64 81.5t122 34.5q227 0 227 -297v-676q0 -20 -20 -20h-60q-20 0 -20 20v660q0 106 -37 161.5t-121 55.5q-72 0 -114.5 -53t-42.5 -164v-660q0 -20 -21 -20h-59q-20 0 -21 20zM202 1245v62q0 16 17 32q37 47 90 47 q29 0 51.5 -12t42.5 -28q18 -14 32.5 -23.5t33.5 -9.5q25 0 43 14t38 43q6 10 14.5 8t8.5 -12v-61q0 -10 -2 -16.5t-12 -16.5q-18 -23 -40.5 -36t-51.5 -13t-51.5 12t-41.5 29q-18 16 -33.5 25t-33.5 9q-25 0 -42.5 -15t-37.5 -44q-8 -8 -16.5 -6t-8.5 12z"/>
<glyph unicode="ò" horiz-adv-x="741" d="M109 489q0 90 1 146.5t3 91.5t6 56.5t10 41.5q27 84 89.5 126t152.5 42t152.5 -42t88.5 -126q6 -20 10.5 -41.5t6.5 -56.5t3 -91.5t1 -146.5q0 -92 -1 -148t-3 -91t-6.5 -56.5t-10.5 -41.5q-27 -84 -89 -126t-152 -42t-152.5 42t-89.5 126q-6 20 -10 41.5t-6 56.5t-3 91 t-1 148zM158 1427.5q2 6.5 12 6.5h67q20 0 33 -21l146 -248q10 -20 -13 -20h-41q-20 0 -34 20l-168 248q-4 8 -2 14.5zM209 489q0 -86 1 -139t2 -85t4 -49t9 -34q33 -102 146 -102t145 102q6 16 9 33.5t4 49.5t2 85t1 139t-1 138.5t-2 84t-4 49t-9 34.5q-33 102 -145 102 q-113 0 -146 -102q-6 -16 -9 -34t-4 -49.5t-2 -84t-1 -138.5z"/>
<glyph unicode="ó" horiz-adv-x="741" d="M109 489q0 90 1 146.5t3 91.5t6 56.5t10 41.5q27 84 89.5 126t152.5 42t152.5 -42t88.5 -126q6 -20 10.5 -41.5t6.5 -56.5t3 -91.5t1 -146.5q0 -92 -1 -148t-3 -91t-6.5 -56.5t-10.5 -41.5q-27 -84 -89 -126t-152 -42t-152.5 42t-89.5 126q-6 20 -10 41.5t-6 56.5t-3 91 t-1 148zM209 489q0 -86 1 -139t2 -85t4 -49t9 -34q33 -102 146 -102t145 102q6 16 9 33.5t4 49.5t2 85t1 139t-1 138.5t-2 84t-4 49t-9 34.5q-33 102 -145 102q-113 0 -146 -102q-6 -16 -9 -34t-4 -49.5t-2 -84t-1 -138.5zM324 1165l145 248q12 20 33 21h65q10 0 13.5 -6.5 t-2.5 -14.5l-166 -248q-10 -12 -16.5 -16t-18.5 -4h-43q-20 0 -10 20z"/>
<glyph unicode="ô" horiz-adv-x="741" d="M109 489q0 90 1 146.5t3 91.5t6 56.5t10 41.5q27 84 89.5 126t152.5 42t152.5 -42t88.5 -126q6 -20 10.5 -41.5t6.5 -56.5t3 -91.5t1 -146.5q0 -92 -1 -148t-3 -91t-6.5 -56.5t-10.5 -41.5q-27 -84 -89 -126t-152 -42t-152.5 42t-89.5 126q-6 20 -10 41.5t-6 56.5t-3 91 t-1 148zM161 1150q-3 5 3 15l155 250q12 18 31 19h41q18 0 31 -19l156 -250q6 -10 3 -15t-14 -5h-47q-16 0 -31 20l-116 176h-4l-117 -176q-8 -10 -14.5 -15t-18.5 -5h-45q-10 0 -13 5zM209 489q0 -86 1 -139t2 -85t4 -49t9 -34q33 -102 146 -102t145 102q6 16 9 33.5 t4 49.5t2 85t1 139t-1 138.5t-2 84t-4 49t-9 34.5q-33 102 -145 102q-113 0 -146 -102q-6 -16 -9 -34t-4 -49.5t-2 -84t-1 -138.5z"/>
<glyph unicode="õ" horiz-adv-x="741" d="M109 489q0 90 1 146.5t3 91.5t6 56.5t10 41.5q27 84 89.5 126t152.5 42t152.5 -42t88.5 -126q6 -20 10.5 -41.5t6.5 -56.5t3 -91.5t1 -146.5q0 -92 -1 -148t-3 -91t-6.5 -56.5t-10.5 -41.5q-27 -84 -89 -126t-152 -42t-152.5 42t-89.5 126q-6 20 -10 41.5t-6 56.5t-3 91 t-1 148zM184 1245v62q0 16 17 32q37 47 90 47q29 0 51.5 -12t42.5 -28q18 -14 32.5 -23.5t33.5 -9.5q25 0 43 14t38 43q6 10 14.5 8t8.5 -12v-61q0 -10 -2 -16.5t-12 -16.5q-18 -23 -40.5 -36t-51.5 -13t-51.5 12t-41.5 29q-18 16 -33.5 25t-33.5 9q-25 0 -42.5 -15 t-37.5 -44q-8 -8 -16.5 -6t-8.5 12zM209 489q0 -86 1 -139t2 -85t4 -49t9 -34q33 -102 146 -102t145 102q6 16 9 33.5t4 49.5t2 85t1 139t-1 138.5t-2 84t-4 49t-9 34.5q-33 102 -145 102q-113 0 -146 -102q-6 -16 -9 -34t-4 -49.5t-2 -84t-1 -138.5z"/>
<glyph unicode="ö" horiz-adv-x="741" d="M109 489q0 90 1 146.5t3 91.5t6 56.5t10 41.5q27 84 89.5 126t152.5 42t152.5 -42t88.5 -126q6 -20 10.5 -41.5t6.5 -56.5t3 -91.5t1 -146.5q0 -92 -1 -148t-3 -91t-6.5 -56.5t-10.5 -41.5q-27 -84 -89 -126t-152 -42t-152.5 42t-89.5 126q-6 20 -10 41.5t-6 56.5t-3 91 t-1 148zM174 1262v110q0 20 21 21h69q20 0 21 -21v-110q0 -20 -21 -21h-69q-20 0 -21 21zM209 489q0 -86 1 -139t2 -85t4 -49t9 -34q33 -102 146 -102t145 102q6 16 9 33.5t4 49.5t2 85t1 139t-1 138.5t-2 84t-4 49t-9 34.5q-33 102 -145 102q-113 0 -146 -102 q-6 -16 -9 -34t-4 -49.5t-2 -84t-1 -138.5zM457 1262v110q0 20 20 21h70q20 0 20 -21v-110q0 -20 -20 -21h-70q-20 0 -20 21z"/>
<glyph unicode="÷" d="M80 539v53q0 20 20 20h559q20 0 21 -20v-53q0 -20 -21 -21h-559q-20 0 -20 21zM297 305q0 35 23.5 59.5t60.5 24.5q35 0 58.5 -24.5t23.5 -59.5q0 -37 -23.5 -61.5t-58.5 -24.5q-37 0 -60.5 24.5t-23.5 61.5zM297 825q0 37 23.5 61.5t60.5 24.5q35 0 58.5 -24.5 t23.5 -61.5q0 -35 -23.5 -59.5t-58.5 -24.5q-37 0 -60.5 25t-23.5 59z"/>
<glyph unicode="ø" horiz-adv-x="741" d="M109 489q0 90 1 146.5t3 91.5t6 56.5t10 41.5q27 84 89.5 126t152.5 42q96 0 161 -49l33 72q8 20 25 20h24q23 0 17 -20l-53 -121q25 -35 34 -70q6 -20 10.5 -41.5t6.5 -56.5t3 -91t1 -147q0 -92 -1 -148t-3 -91t-6.5 -56.5t-10.5 -41.5q-27 -84 -89 -126t-152 -42 q-98 0 -162 49l-31 -72q-8 -20 -26 -20h-25q-10 0 -14 5t0 15l51 119q-10 16 -19.5 32.5t-15.5 39.5q-6 20 -10 41.5t-6 56.5t-3 91t-1 148zM209 369.5q0 -47.5 1 -80.5t2 -51.5t5 -32.5l270 641q-39 51 -116 51q-113 0 -146 -102q-6 -16 -9 -34t-4 -49.5t-2 -84t-1 -138.5 v-119.5zM252 129q41 -49 119 -49q113 0 145 102q6 16 9 33.5t4 49.5t2 85t1 139v118t-2 80t-4 51.5t-4 33.5z"/>
<glyph unicode="ù" horiz-adv-x="770" d="M125 279v677q0 20 20 21h60q20 0 20 -21v-659q0 -109 37 -163t119 -54q72 0 113 52t41 165v659q0 20 20 21h59q20 0 21 -21v-936q0 -20 -21 -20h-59q-20 0 -20 20v80h-3q-20 -47 -62 -81.5t-120 -34.5q-225 0 -225 295zM181 1427.5q2 6.5 12 6.5h67q20 0 33 -21l146 -248 q10 -20 -13 -20h-41q-20 0 -34 20l-168 248q-4 8 -2 14.5z"/>
<glyph unicode="ú" horiz-adv-x="770" d="M125 279v677q0 20 20 21h60q20 0 20 -21v-659q0 -109 37 -163t119 -54q72 0 113 52t41 165v659q0 20 20 21h59q20 0 21 -21v-936q0 -20 -21 -20h-59q-20 0 -20 20v80h-3q-20 -47 -62 -81.5t-120 -34.5q-225 0 -225 295zM320 1165l145 248q12 20 33 21h65q10 0 13.5 -6.5 t-2.5 -14.5l-166 -248q-10 -12 -16.5 -16t-18.5 -4h-43q-20 0 -10 20z"/>
<glyph unicode="û" horiz-adv-x="770" d="M125 279v677q0 20 20 21h60q20 0 20 -21v-659q0 -109 37 -163t119 -54q72 0 113 52t41 165v659q0 20 20 21h59q20 0 21 -21v-936q0 -20 -21 -20h-59q-20 0 -20 20v80h-3q-20 -47 -62 -81.5t-120 -34.5q-225 0 -225 295zM173 1150q-3 5 3 15l155 250q12 18 31 19h41 q18 0 31 -19l156 -250q6 -10 3 -15t-14 -5h-47q-16 0 -31 20l-116 176h-4l-117 -176q-8 -10 -14.5 -15t-18.5 -5h-45q-10 0 -13 5z"/>
<glyph unicode="ü" horiz-adv-x="770" d="M125 279v677q0 20 20 21h60q20 0 20 -21v-659q0 -109 37 -163t119 -54q72 0 113 52t41 165v659q0 20 20 21h59q20 0 21 -21v-936q0 -20 -21 -20h-59q-20 0 -20 20v80h-3q-20 -47 -62 -81.5t-120 -34.5q-225 0 -225 295zM186 1262v110q0 20 21 21h69q20 0 21 -21v-110 q0 -20 -21 -21h-69q-20 0 -21 21zM469 1262v110q0 20 20 21h70q20 0 20 -21v-110q0 -20 -20 -21h-70q-20 0 -20 21z"/>
<glyph unicode="ý" horiz-adv-x="694" d="M68 956q-4 20 16 21h68q16 0 20 -21l176 -741h2l176 741q4 20 21 21h65q20 0 17 -21l-279 -1106q-16 -66 -33.5 -107.5t-42 -66t-56.5 -35t-75 -10.5h-18q-20 0 -21 21v55q0 20 21 21l22 2q41 0 66 23.5t41 88.5l45 183zM295 1165l145 248q12 20 33 21h65q10 0 13.5 -6.5 t-2.5 -14.5l-166 -248q-10 -12 -16.5 -16t-18.5 -4h-43q-20 0 -10 20z"/>
<glyph unicode="þ" horiz-adv-x="770" d="M135 -348v1720q0 20 21 21h59q20 0 21 -21v-498h2q20 47 63 83t125 36q78 0 131 -36.5t80 -118.5q6 -23 11 -44.5t7 -57.5t3 -95t1 -154q0 -94 -1 -152.5t-3 -95t-7 -58t-11 -42.5q-27 -82 -80 -118.5t-131 -36.5q-82 0 -125 34.5t-63 81.5h-2v-448q0 -20 -21 -21h-59 q-20 0 -21 21zM236 487q0 -86 1 -139t4 -84t6 -48t9 -34q32 -102 141 -102q111 0 144 102q6 16 9 33.5t5 48.5t3 84t1 139t-1 139.5t-3 85t-5 49t-9 34.5q-33 102 -144 102q-53 0 -89 -27.5t-52 -74.5q-6 -16 -9 -34t-6 -49.5t-4 -85t-1 -139.5z"/>
<glyph unicode="ÿ" horiz-adv-x="694" d="M68 956q-4 20 16 21h68q16 0 20 -21l176 -741h2l176 741q4 20 21 21h65q20 0 17 -21l-279 -1106q-16 -66 -33.5 -107.5t-42 -66t-56.5 -35t-75 -10.5h-18q-20 0 -21 21v55q0 20 21 21l22 2q41 0 66 23.5t41 88.5l45 183zM154 1262v110q0 20 21 21h69q20 0 21 -21v-110 q0 -20 -21 -21h-69q-20 0 -21 21zM437 1262v110q0 20 20 21h70q20 0 20 -21v-110q0 -20 -20 -21h-70q-20 0 -20 21z"/>
<glyph unicode="Œ" horiz-adv-x="1204" d="M117 696q0 154 1 246t4 146.5t8 82t13 50.5q31 96 99.5 142t171.5 46q78 0 130 -27.5t79 -74.5h2v65q0 20 20 21h473q20 0 21 -21v-59q0 -20 -21 -21h-375q-12 0 -12 -12v-512q0 -12 12 -12h328q20 0 21 -21v-59q0 -20 -21 -21h-328q-12 0 -12 -12v-530q0 -12 12 -13h375 q20 0 21 -20v-60q0 -20 -21 -20h-473q-20 0 -20 20v66h-2q-27 -47 -79 -74.5t-130 -27.5q-102 0 -171 47t-100 141q-8 23 -13 50.5t-8 81.5t-4 146.5t-1 245.5zM225 696q0 -150 1 -238.5t4 -138t6.5 -72t9.5 -40.5q43 -123 178 -123q137 0 178 123q6 18 10 40.5t7.5 72 t4.5 138.5t1 238q0 150 -1 239t-4.5 138t-7.5 71.5t-10 41.5q-20 63 -66.5 93t-111.5 30q-137 0 -178 -123q-6 -18 -9.5 -41t-6.5 -72t-4 -138t-1 -239z"/>
<glyph unicode="œ" horiz-adv-x="1148" d="M109 489q0 90 1 146.5t3 91.5t6 56.5t10 41.5q27 84 89.5 126t152.5 42q150 0 211 -121h2q57 121 207 121q182 0 235 -166q6 -16 10 -36.5t7.5 -56.5t4.5 -95t1 -152q0 -20 -21 -20h-383q-12 0 -12 -12q0 -76 1 -123t4 -77t6 -46t7 -29q16 -51 52 -75.5t85 -24.5 q63 0 100.5 31.5t57.5 103.5q4 18 25 14l55 -12q18 -4 12 -24q-23 -104 -86.5 -156.5t-165.5 -52.5q-72 0 -126 30.5t-76 89.5h-2q-29 -61 -84.5 -90.5t-126.5 -29.5q-90 0 -152.5 42t-89.5 126q-6 20 -10 41.5t-6 56.5t-3 91t-1 148zM209 489q0 -86 1 -139t2 -85t4 -49 t9 -34q33 -102 146 -102t145 102q6 16 9 33.5t4 49.5t2 85t1 139t-1 138.5t-2 84t-4 49t-9 34.5q-33 102 -145 102q-113 0 -146 -102q-6 -16 -9 -34t-4 -49.5t-2 -84t-1 -138.5zM633 569q0 -12 12 -12h291q12 0 12 12q0 59 -1 98.5t-4 65t-6 39.5t-7 25q-35 102 -139 102 t-140 -102q-4 -10 -7 -24.5t-6 -40t-4 -64.5t-1 -99z"/>
<glyph unicode="Ÿ" horiz-adv-x="737" d="M47 1372q-6 20 12 21h72q16 0 23 -21l215 -633h4l211 633q6 20 22 21h72q18 0 12 -21l-268 -786v-566q0 -20 -21 -20h-65q-20 0 -21 20v566zM174 1632v111q0 20 21 20h69q20 0 21 -20v-111q0 -20 -21 -20h-69q-20 0 -21 20zM457 1632v111q0 20 20 20h70q20 0 20 -20v-111 q0 -20 -20 -20h-70q-20 0 -20 20z"/>
<glyph unicode="ˆ" horiz-adv-x="741" d="M161 1150q-3 5 3 15l155 250q12 18 31 19h41q18 0 31 -19l156 -250q6 -10 3 -15t-14 -5h-47q-16 0 -31 20l-116 176h-4l-117 -176q-8 -10 -14.5 -15t-18.5 -5h-45q-10 0 -13 5z"/>
<glyph unicode="˜" horiz-adv-x="741" d="M184 1245v62q0 16 17 32q37 47 90 47q29 0 51.5 -12t42.5 -28q18 -14 32.5 -23.5t33.5 -9.5q25 0 43 14t38 43q6 10 14.5 8t8.5 -12v-61q0 -10 -2 -16.5t-12 -16.5q-18 -23 -40.5 -36t-51.5 -13t-51.5 12t-41.5 29q-18 16 -33.5 25t-33.5 9q-25 0 -42.5 -15t-37.5 -44 q-8 -8 -16.5 -6t-8.5 12z"/>
<glyph unicode=" " horiz-adv-x="926"/>
<glyph unicode=" " horiz-adv-x="1853"/>
<glyph unicode=" " horiz-adv-x="926"/>
<glyph unicode=" " horiz-adv-x="1853"/>
<glyph unicode=" " horiz-adv-x="617"/>
<glyph unicode=" " horiz-adv-x="463"/>
<glyph unicode=" " horiz-adv-x="308"/>
<glyph unicode=" " horiz-adv-x="308"/>
<glyph unicode=" " horiz-adv-x="231"/>
<glyph unicode=" " horiz-adv-x="370"/>
<glyph unicode=" " horiz-adv-x="102"/>
<glyph unicode="‐" horiz-adv-x="608" d="M84 518v55q0 20 20 21h402q20 0 20 -21v-55q0 -20 -20 -20h-402q-20 0 -20 20z"/>
<glyph unicode="‑" horiz-adv-x="608" d="M84 518v55q0 20 20 21h402q20 0 20 -21v-55q0 -20 -20 -20h-402q-20 0 -20 20z"/>
<glyph unicode="‒" horiz-adv-x="608" d="M84 518v55q0 20 20 21h402q20 0 20 -21v-55q0 -20 -20 -20h-402q-20 0 -20 20z"/>
<glyph unicode="–" horiz-adv-x="765" d="M39 522v47q0 20 20 21h648q20 0 20 -21v-47q0 -20 -20 -20h-648q-20 0 -20 20z"/>
<glyph unicode="—" horiz-adv-x="1153" d="M39 522v47q0 20 20 21h1035q20 0 20 -21v-47q0 -20 -20 -20h-1035q-20 0 -20 20z"/>
<glyph unicode="‘" horiz-adv-x="288" d="M86 1104v106q0 16 3 25.5t9 21.5l66 121q6 16 20 17q18 0 19 -19v-272q0 -20 -21 -21h-76q-20 0 -20 21z"/>
<glyph unicode="’" horiz-adv-x="284" d="M86 1087v285q0 20 20 21h72q20 0 21 -21v-125q0 -27 -11 -47l-63 -113q-7 -18 -21 -18q-18 0 -18 18z"/>
<glyph unicode="‚" horiz-adv-x="284" d="M86 131q0 20 20 21h72q20 0 21 -21v-123q0 -16 -2 -24.5t-9 -22.5l-63 -117q-7 -16 -21 -16q-18 0 -18 18v285z"/>
<glyph unicode="“" horiz-adv-x="497" d="M86 1092v125q0 16 3 25t9 22l62 112q8 16 22 17q16 0 17 -19v-282q0 -20 -21 -21h-72q-20 0 -20 21zM299 1092v125q0 16 3 25t7 22l64 112q8 16 22 17q16 0 17 -19v-282q0 -20 -21 -21h-72q-20 0 -20 21z"/>
<glyph unicode="”" horiz-adv-x="497" d="M86 1087v285q0 20 20 21h72q20 0 21 -21v-125q0 -27 -11 -47l-63 -113q-7 -18 -21 -18q-18 0 -18 18zM299 1087v285q0 20 20 21h72q20 0 21 -21v-125q0 -27 -11 -47l-63 -113q-7 -18 -21 -18q-18 0 -18 18z"/>
<glyph unicode="„" horiz-adv-x="497" d="M86 125q0 20 20 20h72q20 0 21 -20v-127q0 -16 -2 -24.5t-9 -22.5l-63 -113q-7 -16 -21 -16q-18 0 -18 18v285zM299 125q0 20 20 20h72q20 0 21 -20v-127q0 -16 -2 -24.5t-9 -22.5l-63 -113q-7 -16 -21 -16q-18 0 -18 18v285z"/>
<glyph unicode="•" horiz-adv-x="794" d="M193 631q0 90 58 148.5t146 58.5t146.5 -58.5t58.5 -148.5q0 -88 -58.5 -147.5t-146.5 -59.5t-146 59.5t-58 147.5z"/>
<glyph unicode="…" horiz-adv-x="1050" d="M109 20v134q0 20 20 20h92q20 0 21 -20v-134q0 -20 -21 -20h-92q-20 0 -20 20zM459 20v134q0 20 20 20h92q20 0 21 -20v-134q0 -20 -21 -20h-92q-20 0 -20 20zM809 20v134q0 20 20 20h93q20 0 20 -20v-134q0 -20 -20 -20h-93q-20 0 -20 20z"/>
<glyph unicode=" " horiz-adv-x="370"/>
<glyph unicode="‹" horiz-adv-x="524" d="M84 526q-14 14 0 29l293 311q6 6 13 4t7 -12v-76q0 -10 -3 -17t-13 -17l-184 -199q-8 -8 0 -17l184 -198q10 -10 13 -17.5t3 -17.5v-76q0 -10 -7 -12t-13 4z"/>
<glyph unicode="›" horiz-adv-x="524" d="M125 223v76q0 16 18 35l185 198q8 8 0 17l-185 199q-18 18 -18 34v76q0 10 7 12t13 -4l293 -311q14 -14 0 -29l-293 -311q-6 -6 -13 -4t-7 12z"/>
<glyph unicode=" " horiz-adv-x="463"/>
<glyph unicode="€" d="M35 557v41q0 20 20 20h92q12 0 13 13v145q0 12 -13 12h-92q-20 0 -20 21v41q0 20 20 20h92q12 0 13 13q0 92 1 151.5t4 96t7 59t10 41.5q59 178 250 178q119 0 186.5 -73.5t83.5 -190.5q4 -23 -12 -25l-57 -12q-20 -6 -25 14q-16 86 -57 138.5t-119 52.5 q-117 0 -153 -111q-4 -16 -8.5 -34.5t-6.5 -52.5t-3 -89t-1 -143q0 -12 12 -13h299q20 0 21 -20l-12 -41q-6 -20 -27 -21h-281q-12 0 -12 -12v-145q0 -12 12 -13h258q20 0 21 -20l-12 -41q-6 -20 -27 -20h-240q-12 0 -12 -13q0 -94 1 -151.5t3 -93t6 -54t9 -35.5 q37 -111 153 -110q78 0 119 52t57 138q4 20 25 15l57 -11q14 -6 12 -26q-16 -117 -83.5 -190.5t-186.5 -73.5q-190 0 -250 178q-6 18 -10 40.5t-7 61.5t-4 100.5t-1 159.5q0 12 -13 13h-92q-20 0 -20 20z"/>
<glyph unicode="™" horiz-adv-x="1288" d="M135 1333v39q0 20 21 21h376q20 0 21 -21v-39q0 -20 -21 -20h-139q-6 0 -6 -10v-697q0 -20 -20 -20h-43q-20 0 -21 20v697q0 10 -8 10h-139q-20 0 -21 20zM672 606v766q0 20 20 21h47q18 0 25 -21l156 -514h2l151 514q6 20 25 21h47q20 0 20 -21v-766q0 -20 -20 -20h-41 q-20 0 -21 20v549h-2l-127 -412q-6 -20 -22 -20h-27q-16 0 -22 20l-129 412h-2v-549q0 -20 -21 -20h-39q-20 0 -20 20z"/>
<glyph unicode="◼" horiz-adv-x="972" d="M0 0v973h973v-973h-973z"/>
</font>
</defs>
</svg>
